<svg id="Layer_1" data-name="Layer 1" xmlns="http://www.w3.org/2000/svg" width="71.58" height="38.759" viewBox="0 0 71.58 38.759">
  <g id="Group_48" data-name="Group 48">
    <g id="Group_42" data-name="Group 42" transform="translate(3.242 19.685)">
      <path id="Path_82" data-name="Path 82" d="M13.727,56.229H10.073l-.692,1.635H8.11l3.2-7.244H12.56l3.166,7.244h-1.3l-.692-1.635Zm-.468-1.087-1.367-3.218-1.367,3.218h2.73Z" transform="translate(-8.11 -50.068)" fill="#fff"/>
      <path id="Path_83" data-name="Path 83" d="M32.307,54.972v.8l-3.146,3.726,3.238.012v.971l-4.709-.012v-.808l3.146-3.726H27.782V54.96l4.522.012Z" transform="translate(-19.862 -52.673)" fill="#fff"/>
      <path id="Path_84" data-name="Path 84" d="M44.338,60.421v-.672a2.226,2.226,0,0,1-1.823.724,1.742,1.742,0,0,1-1.935-1.707c0-.971.756-1.647,2.079-1.655h1.667v-.164c0-.692-.444-1.107-1.315-1.107a2.9,2.9,0,0,0-1.623.56l-.488-.828a4.03,4.03,0,0,1,2.371-.692c1.419,0,2.215.724,2.223,1.935l.012,3.61H44.338Zm-.008-1.935v-.508H42.839c-.776,0-1.139.208-1.139.736,0,.5.4.816,1.067.816C43.614,59.529,44.266,59.086,44.33,58.486Z" transform="translate(-27.599 -52.625)" fill="#fff"/>
      <path id="Path_85" data-name="Path 85" d="M60.715,49.524V57.2H59.523V56.26a2.135,2.135,0,0,1-1.935.991,2.6,2.6,0,0,1-2.639-2.826,2.56,2.56,0,0,1,2.619-2.782,2.177,2.177,0,0,1,1.955,1V49.52h1.191Zm-1.187,4.945a1.675,1.675,0,0,0-1.687-1.811,1.8,1.8,0,0,0,0,3.6A1.664,1.664,0,0,0,59.527,54.469Z" transform="translate(-36.224 -49.408)" fill="#fff"/>
      <path id="Path_86" data-name="Path 86" d="M74.393,49.956a.692.692,0,1,1-1.383,0,.692.692,0,0,1,.692-.716A.685.685,0,0,1,74.393,49.956Zm-.1,1.571v5.5H73.11v-5.5h1.179Z" transform="translate(-47.064 -49.24)" fill="#fff"/>
    </g>
    <g id="Group_44" data-name="Group 44" transform="translate(14.028 7.186)">
      <g id="Group_43" data-name="Group 43" transform="translate(0 0.21)">
        <path id="Path_87" data-name="Path 87" d="M39.36,21.63l2.515,2.659.528.744.536.74-.656-.632-.652-.632Z" transform="translate(-37.653 -20.379)" fill="#fff" fill-rule="evenodd"/>
        <path id="Path_88" data-name="Path 88" d="M42.2,19.73l1.775,3.2.332.848.336.852-.48-.776-.48-.78Z" transform="translate(-39.358 -19.238)" fill="#fff" fill-rule="evenodd"/>
        <path id="Path_89" data-name="Path 89" d="M45.43,18.66l.931,3.53.108.9.112.9-.272-.872-.272-.868Z" transform="translate(-41.296 -18.596)" fill="#fff" fill-rule="evenodd"/>
        <path id="Path_90" data-name="Path 90" d="M48.4,18.5l.016,3.618-.12.884-.12.892-.048-.9-.044-.9Z" transform="translate(-42.887 -18.5)" fill="#fff" fill-rule="evenodd"/>
        <path id="Path_91" data-name="Path 91" d="M49.893,19.26l-.9,3.458-.34.816-.34.816.184-.872.184-.876Z" transform="translate(-43.025 -18.956)" fill="#fff" fill-rule="evenodd"/>
        <path id="Path_92" data-name="Path 92" d="M51.144,20.89l-1.755,3.058-.54.692-.54.688.4-.784.4-.784Z" transform="translate(-43.025 -19.935)" fill="#fff" fill-rule="evenodd"/>
        <path id="Path_93" data-name="Path 93" d="M52.2,23.27l-2.495,2.459-.7.512-.7.516.588-.644.592-.644Z" transform="translate(-43.025 -21.363)" fill="#fff" fill-rule="evenodd"/>
        <path id="Path_94" data-name="Path 94" d="M53,26.25l-3.054,1.687-.82.3-.812.3.74-.456.74-.46Z" transform="translate(-43.025 -23.152)" fill="#fff" fill-rule="evenodd"/>
        <path id="Path_95" data-name="Path 95" d="M53.467,29.62l-3.41.8-.872.076-.876.072.836-.244.84-.236Z" transform="translate(-43.025 -25.174)" fill="#fff" fill-rule="evenodd"/>
        <path id="Path_96" data-name="Path 96" d="M53.591,32.43l-3.538-.144-.872-.16-.872-.16.88-.008.88-.008Z" transform="translate(-43.025 -26.573)" fill="#fff" fill-rule="evenodd"/>
        <path id="Path_97" data-name="Path 97" d="M53.355,33.833l-3.422-1.071-.812-.388-.812-.384.86.224.864.228Z" transform="translate(-43.025 -26.597)" fill="#fff" fill-rule="evenodd"/>
        <path id="Path_98" data-name="Path 98" d="M52.772,35.088,49.7,33.157l-.7-.584-.7-.584.784.444.784.444Z" transform="translate(-43.025 -26.597)" fill="#fff" fill-rule="evenodd"/>
        <path id="Path_99" data-name="Path 99" d="M51.884,36.132l-2.511-2.659-.532-.744-.532-.74.652.632.656.636Z" transform="translate(-43.025 -26.597)" fill="#fff" fill-rule="evenodd"/>
        <path id="Path_100" data-name="Path 100" d="M50.757,36.891l-1.783-3.206-.332-.848-.332-.848.48.776.476.78Z" transform="translate(-43.025 -26.597)" fill="#fff" fill-rule="evenodd"/>
        <path id="Path_101" data-name="Path 101" d="M49.457,37.319l-.927-3.53-.112-.9-.108-.9.272.868.268.872Z" transform="translate(-43.025 -26.597)" fill="#fff" fill-rule="evenodd"/>
        <path id="Path_102" data-name="Path 102" d="M47.722,37.383l-.012-3.618.12-.888.12-.888.044.9.044.9Z" transform="translate(-42.665 -26.597)" fill="#fff" fill-rule="evenodd"/>
        <path id="Path_103" data-name="Path 103" d="M44.34,37.079l.9-3.458.34-.816.344-.816-.184.876-.188.872Z" transform="translate(-40.642 -26.597)" fill="#fff" fill-rule="evenodd"/>
        <path id="Path_104" data-name="Path 104" d="M41.21,36.432l1.755-3.066.544-.688.54-.688-.4.784-.4.784Z" transform="translate(-38.763 -26.597)" fill="#fff" fill-rule="evenodd"/>
        <path id="Path_105" data-name="Path 105" d="M38.57,35.476l2.491-2.459.7-.516.7-.512-.592.644-.592.64Z" transform="translate(-37.179 -26.597)" fill="#fff" fill-rule="evenodd"/>
        <path id="Path_106" data-name="Path 106" d="M36.58,34.285,39.638,32.6l.816-.3.816-.3-.74.456-.744.46Z" transform="translate(-35.984 -26.597)" fill="#fff" fill-rule="evenodd"/>
        <path id="Path_107" data-name="Path 107" d="M35.4,32.937l3.41-.8.876-.072.876-.076-.84.24-.84.24Z" transform="translate(-35.276 -26.597)" fill="#fff" fill-rule="evenodd"/>
        <path id="Path_108" data-name="Path 108" d="M35.09,30.83l3.538.144.872.16.876.16-.884.008-.88.008Z" transform="translate(-35.09 -25.901)" fill="#fff" fill-rule="evenodd"/>
        <path id="Path_109" data-name="Path 109" d="M35.69,27.38l3.418,1.071.816.384.812.388L39.872,29l-.86-.224Z" transform="translate(-35.45 -23.83)" fill="#fff" fill-rule="evenodd"/>
        <path id="Path_110" data-name="Path 110" d="M37.15,24.24l3.07,1.931.7.584.7.584-.788-.444-.78-.448Z" transform="translate(-36.326 -21.945)" fill="#fff" fill-rule="evenodd"/>
      </g>
      <path id="Path_111" data-name="Path 111" d="M43.456,19.141a.275.275,0,0,1,.244.492.271.271,0,0,1-.356-.128.264.264,0,0,1,.108-.36Z" transform="translate(-40.026 -18.659)" fill="#fff" fill-rule="evenodd"/>
      <path id="Path_112" data-name="Path 112" d="M46.71,18.524a.279.279,0,0,1,.316.22.262.262,0,0,1-.2.316.278.278,0,0,1-.316-.22A.259.259,0,0,1,46.71,18.524Z" transform="translate(-41.941 -18.302)" fill="#fff" fill-rule="evenodd"/>
      <path id="Path_113" data-name="Path 113" d="M50.045,18.8a.281.281,0,0,1,.252.292.251.251,0,0,1-.276.248.281.281,0,0,1-.252-.292A.258.258,0,0,1,50.045,18.8Z" transform="translate(-43.901 -18.468)" fill="#fff" fill-rule="evenodd"/>
      <path id="Path_114" data-name="Path 114" d="M53.234,19.935a.283.283,0,0,1,.172.348.251.251,0,0,1-.332.16.288.288,0,0,1-.172-.348A.254.254,0,0,1,53.234,19.935Z" transform="translate(-45.774 -19.141)" fill="#fff" fill-rule="evenodd"/>
      <path id="Path_115" data-name="Path 115" d="M56.058,21.879a.276.276,0,0,1,.08.376.254.254,0,0,1-.364.068.282.282,0,0,1-.084-.376.255.255,0,0,1,.368-.064Z" transform="translate(-47.431 -20.29)" fill="#fff" fill-rule="evenodd"/>
      <path id="Path_116" data-name="Path 116" d="M58.322,24.475a.27.27,0,0,1-.016.38.259.259,0,0,1-.372-.032.27.27,0,0,1,.016-.38A.259.259,0,0,1,58.322,24.475Z" transform="translate(-48.76 -21.818)" fill="#fff" fill-rule="evenodd"/>
      <path id="Path_117" data-name="Path 117" d="M59.885,27.556a.263.263,0,0,1-.112.36.275.275,0,1,1,.112-.36Z" transform="translate(-49.675 -23.632)" fill="#fff" fill-rule="evenodd"/>
      <path id="Path_118" data-name="Path 118" d="M60.626,30.913a.261.261,0,0,1-.2.316.279.279,0,0,1-.316-.22.262.262,0,0,1,.2-.316.271.271,0,0,1,.312.22Z" transform="translate(-50.104 -25.605)" fill="#fff" fill-rule="evenodd"/>
      <path id="Path_119" data-name="Path 119" d="M60.5,34.321a.251.251,0,0,1-.276.248.281.281,0,0,1-.252-.292.256.256,0,0,1,.276-.248A.281.281,0,0,1,60.5,34.321Z" transform="translate(-50.023 -27.61)" fill="#fff" fill-rule="evenodd"/>
      <path id="Path_120" data-name="Path 120" d="M59.525,37.538a.248.248,0,0,1-.332.16.278.278,0,0,1-.172-.344.251.251,0,0,1,.332-.16.283.283,0,0,1,.172.348Z" transform="translate(-49.447 -29.5)" fill="#fff" fill-rule="evenodd"/>
      <path id="Path_121" data-name="Path 121" d="M57.75,40.354a.259.259,0,0,1-.364.068.277.277,0,0,1-.08-.376.254.254,0,0,1,.364-.068.28.28,0,0,1,.08.38Z" transform="translate(-48.399 -31.152)" fill="#fff" fill-rule="evenodd"/>
      <path id="Path_122" data-name="Path 122" d="M55.306,42.559a.262.262,0,0,1-.372-.032.275.275,0,0,1,.016-.384.264.264,0,0,1,.376.032.275.275,0,0,1-.016.384Z" transform="translate(-46.959 -32.442)" fill="#fff" fill-rule="evenodd"/>
      <path id="Path_123" data-name="Path 123" d="M52.361,44.029A.271.271,0,0,1,52,43.9a.265.265,0,0,1,.112-.36.269.269,0,0,1,.356.132.266.266,0,0,1-.112.36Z" transform="translate(-45.225 -33.305)" fill="#fff" fill-rule="evenodd"/>
      <path id="Path_124" data-name="Path 124" d="M49.106,44.644a.276.276,0,0,1-.316-.22.253.253,0,0,1,.2-.312.269.269,0,0,1,.312.216.259.259,0,0,1-.2.316Z" transform="translate(-43.309 -33.66)" fill="#fff" fill-rule="evenodd"/>
      <path id="Path_125" data-name="Path 125" d="M45.782,44.368a.284.284,0,0,1-.252-.292.253.253,0,0,1,.276-.248.281.281,0,0,1,.252.292A.251.251,0,0,1,45.782,44.368Z" transform="translate(-41.356 -33.492)" fill="#fff" fill-rule="evenodd"/>
      <path id="Path_126" data-name="Path 126" d="M46.857,30.44a.662.662,0,0,1,.943.084.689.689,0,0,1-.04.963.659.659,0,0,1-.943-.084A.692.692,0,0,1,46.857,30.44Z" transform="translate(-42.023 -25.36)" fill="#fff" fill-rule="evenodd"/>
      <path id="Path_127" data-name="Path 127" d="M48.888,19.967a5.527,5.527,0,0,0-6.328-1.575v.464a5.1,5.1,0,0,1,6.033,1.375,5.25,5.25,0,0,1-.3,7.316,4.908,4.908,0,0,1-5.725.544v.464a5.292,5.292,0,0,0,6-.7,5.66,5.66,0,0,0,.328-7.9Z" transform="translate(-39.574 -17.974)" fill="#fff" fill-rule="evenodd"/>
    </g>
    <g id="Group_45" data-name="Group 45" transform="translate(33.709 24.167)">
      <path id="Path_128" data-name="Path 128" d="M88.182,66.247l-1.9-2.559L85.3,64.772v1.475H84.32v-5.8H85.3v3l2.766-3h1.151l-2.243,2.475,2.395,3.322H88.19Z" transform="translate(-84.32 -60.45)" fill="#fff"/>
      <path id="Path_129" data-name="Path 129" d="M100.606,68.282v-.54a1.793,1.793,0,0,1-1.459.58A1.394,1.394,0,0,1,97.6,66.954c0-.78.6-1.315,1.663-1.323h1.331V65.5c0-.556-.356-.887-1.051-.887a2.306,2.306,0,0,0-1.3.448l-.388-.664a3.226,3.226,0,0,1,1.895-.556c1.135,0,1.771.58,1.779,1.547l.008,2.89H100.6Zm-.008-1.547v-.4H99.407c-.62,0-.911.164-.911.588,0,.4.324.656.852.656.68,0,1.2-.356,1.251-.836Z" transform="translate(-92.291 -62.485)" fill="#fff"/>
    </g>
    <g id="Group_46" data-name="Group 46" transform="translate(24.854 31.027)">
      <path id="Path_130" data-name="Path 130" d="M63.617,78.7l2.391,4.813L68.387,78.7h1.439v7.244H68.7l-.012-5.413L66.4,85.188h-.8l-2.287-4.657v5.413H62.17V78.7Z" transform="translate(-62.17 -78.264)" fill="#fff"/>
      <path id="Path_131" data-name="Path 131" d="M87.9,88.5v-.672a2.226,2.226,0,0,1-1.823.724,1.742,1.742,0,0,1-1.935-1.707c0-.971.756-1.647,2.079-1.655h1.667v-.164c0-.692-.444-1.107-1.315-1.107a2.9,2.9,0,0,0-1.623.56l-.488-.828a4.03,4.03,0,0,1,2.371-.692c1.419,0,2.215.724,2.223,1.935l.012,3.61H87.9Zm-.008-1.935v-.508H86.4c-.776,0-1.139.208-1.139.736,0,.5.4.816,1.067.816C87.174,87.609,87.826,87.166,87.89,86.566Z" transform="translate(-75.357 -80.821)" fill="#fff"/>
      <path id="Path_132" data-name="Path 132" d="M105.217,81.864V85.29h-1.191V82.2A1.226,1.226,0,0,0,102.7,80.86a1.572,1.572,0,0,0-1.571,1.719v2.71H99.94V77.61h1.191v3.25a2.083,2.083,0,0,1,2.039-1.119A1.922,1.922,0,0,1,105.217,81.864Z" transform="translate(-84.84 -77.61)" fill="#fff"/>
      <path id="Path_133" data-name="Path 133" d="M120.925,85.732a2.874,2.874,0,1,1-2.866-2.782A2.7,2.7,0,0,1,120.925,85.732Zm-4.553.02a1.684,1.684,0,1,0,1.687-1.791A1.658,1.658,0,0,0,116.371,85.752Z" transform="translate(-93.988 -80.815)" fill="#fff"/>
      <path id="Path_134" data-name="Path 134" d="M134.284,86.246a2.64,2.64,0,0,1-1.355.4,1.451,1.451,0,0,1-1.543-1.6V82.193h-.776V81.3h.776V79.79h1.179V81.3h1.623v.892h-1.623v2.639c0,.568.216.744.592.744a1.914,1.914,0,0,0,.828-.24Z" transform="translate(-103.249 -78.918)" fill="#fff"/>
      <path id="Path_135" data-name="Path 135" d="M142.455,83.865c-.464,0-.808.156-.808.548,0,1.015,2.93.464,2.918,2.463,0,1.127-1,1.635-2.111,1.635a3.389,3.389,0,0,1-2.215-.768l.424-.848a3.007,3.007,0,0,0,1.843.684c.508,0,.9-.176.9-.592,0-1.127-2.9-.5-2.886-2.483,0-1.119.971-1.6,2.027-1.6a3.476,3.476,0,0,1,1.923.56l-.436.88a3.241,3.241,0,0,0-1.583-.488Z" transform="translate(-109.029 -80.791)" fill="#fff"/>
      <path id="Path_136" data-name="Path 136" d="M156.038,88.5v-.672a2.226,2.226,0,0,1-1.823.724,1.742,1.742,0,0,1-1.935-1.707c0-.971.756-1.647,2.079-1.655h1.667v-.164c0-.692-.444-1.107-1.315-1.107a2.9,2.9,0,0,0-1.623.56l-.488-.828a4.03,4.03,0,0,1,2.371-.692c1.419,0,2.215.724,2.223,1.935l.012,3.61h-1.167Zm-.012-1.935v-.508h-1.491c-.776,0-1.139.208-1.139.736,0,.5.4.816,1.067.816C155.31,87.609,155.962,87.166,156.026,86.566Z" transform="translate(-116.256 -80.821)" fill="#fff"/>
      <path id="Path_137" data-name="Path 137" d="M166.6,83.05l1.531,4.338,1.511-4.338h1.191l-2.111,5.5h-1.231l-2.131-5.5H166.6Z" transform="translate(-124.107 -80.875)" fill="#fff"/>
    </g>
    <g id="Group_47" data-name="Group 47" transform="translate(0 29.544)">
      <path id="Path_138" data-name="Path 138" d="M4.5,79.48H1.575l-.556,1.307H0l2.559-5.8h1l2.535,5.8H5.053Zm-.376-.872L3.03,76.033,1.939,78.608H4.126Z" transform="translate(0 -74.554)" fill="#fff"/>
      <path id="Path_139" data-name="Path 139" d="M23.87,80.1v2.742h-.951V80.369a.977.977,0,0,0-1.043-1.075,1.253,1.253,0,0,0-1.207,1.375v2.179h-.951V80.373A.971.971,0,0,0,18.681,79.3a1.261,1.261,0,0,0-1.227,1.375v2.179H16.51V78.446h.943V79.3a1.631,1.631,0,0,1,1.6-.888,1.474,1.474,0,0,1,1.531,1.059,1.616,1.616,0,0,1,1.671-1.059,1.53,1.53,0,0,1,1.615,1.7Z" transform="translate(-9.91 -76.607)" fill="#fff"/>
      <path id="Path_140" data-name="Path 140" d="M40.065,78.39V79.3a1.334,1.334,0,0,0-1.523,1.223v2.3H37.59V78.422h.951v.88A1.6,1.6,0,0,1,40.065,78.39Z" transform="translate(-22.562 -76.595)" fill="#fff"/>
      <path id="Path_141" data-name="Path 141" d="M46.131,74.472a.556.556,0,1,1-1.111,0,.556.556,0,1,1,1.111,0Zm-.084,1.255v4.406H45.1V75.727Z" transform="translate(-27.022 -73.9)" fill="#fff"/>
      <path id="Path_142" data-name="Path 142" d="M52.418,81.035a2.106,2.106,0,0,1-1.083.324A1.161,1.161,0,0,1,50.1,80.076V77.789h-.62v-.712h.62V75.87h.943v1.207h1.3v.712h-1.3V79.9c0,.456.172.6.472.6a1.558,1.558,0,0,0,.664-.192l.24.728Z" transform="translate(-29.699 -75.082)" fill="#fff"/>
    </g>
    <path id="Path_143" data-name="Path 143" d="M88.035,14.183a.8.8,0,0,0-.752.064,8.5,8.5,0,0,1-6.1.256,26.472,26.472,0,0,0-5.149-1.063c-3.146-.268-5.957.824-8.683,2.2a16.135,16.135,0,0,1-3.67,1.543c-1.163.26-1.591-.18-1.375-1.351.184-.987-.04-1.383-.987-1.715a4.146,4.146,0,0,0-.792-.188,27.328,27.328,0,0,0-9.939.876l-.264.124a5.742,5.742,0,0,1,5.293,3,21.255,21.255,0,0,1,6.1.06c.832.116,1.159.556.852,1.4a3.991,3.991,0,0,0-.216,1.063c-.084,1.1.4,1.519,1.479,1.275a4.875,4.875,0,0,0,1.031-.34,34.188,34.188,0,0,0,4.306-2.335,10.3,10.3,0,0,1,4.785-1.815c2.359-.248,4.717-.064,7.072-.164a10.209,10.209,0,0,0,5.789-1.555,2.563,2.563,0,0,0,1.219-1.339Z" transform="translate(-30.203 -8.042)" fill="#f7941d" fill-rule="evenodd"/>
    <path id="Path_144" data-name="Path 144" d="M92.687,32.843a.8.8,0,0,0-.752.064,8.5,8.5,0,0,1-6.1.256A26.472,26.472,0,0,0,80.681,32.1c-3.146-.268-5.957.824-8.683,2.2a16.135,16.135,0,0,1-3.67,1.543c-1.163.26-1.591-.18-1.375-1.351.184-.987-.04-1.383-.987-1.715a4.147,4.147,0,0,0-.792-.188,21.587,21.587,0,0,0-4.186-.088A5.933,5.933,0,0,1,58.07,37.06c.3-.08.608-.16.915-.232a19.945,19.945,0,0,1,7.384-.184c.832.116,1.159.556.852,1.4a3.992,3.992,0,0,0-.216,1.063c-.084,1.1.4,1.519,1.479,1.275a4.874,4.874,0,0,0,1.031-.34,34.187,34.187,0,0,0,4.306-2.335A10.3,10.3,0,0,1,78.607,35.9c2.359-.248,4.717-.064,7.072-.164a10.209,10.209,0,0,0,5.789-1.555,2.563,2.563,0,0,0,1.219-1.339Z" transform="translate(-34.855 -19.242)" fill="#00a24e" fill-rule="evenodd"/>
    <path id="Path_145" data-name="Path 145" d="M9.35,0V1.6h9.483l-8,14.664,1.307.947L21.691,0Z" transform="translate(-5.612)" fill="#fff" fill-rule="evenodd"/>
    <path id="Path_146" data-name="Path 146" d="M43.587,0H36.163L30.77,9.731l1.247.616L36.975,1.6h6.612Z" transform="translate(-18.469)" fill="#fff" fill-rule="evenodd"/>
  </g>
</svg>
