<svg id="Layer_1" data-name="Layer 1" xmlns="http://www.w3.org/2000/svg" width="96.942" height="41.767" viewBox="0 0 96.942 41.767">
  <g id="Group_41" data-name="Group 41" transform="translate(0 0)">
    <path id="Path_74" data-name="Path 74" d="M135.78,78.71h7.959v1.382H135.78Z" transform="translate(-108.423 -62.85)" fill="#f89521"/>
    <path id="Path_75" data-name="Path 75" d="M135.78,86.952h7.959V85.57H135.78Z" transform="translate(-108.423 -68.328)" fill="#fff"/>
    <path id="Path_76" data-name="Path 76" d="M135.78,92.43h7.959v1.382H135.78Z" transform="translate(-108.423 -73.806)" fill="#08a650"/>
    <g id="Group_39" data-name="Group 39" transform="translate(0 0)">
      <path id="Path_77" data-name="Path 77" d="M20.727,34.82a13.449,13.449,0,1,1-9.508,3.939,13.4,13.4,0,0,1,9.508-3.939m8.611,4.836A12.18,12.18,0,1,0,32.9,48.267a12.136,12.136,0,0,0-3.566-8.611M53.418,34.82a13.449,13.449,0,1,1-9.508,3.939,13.407,13.407,0,0,1,9.508-3.939m8.611,4.836A12.18,12.18,0,1,0,65.6,48.267a12.136,12.136,0,0,0-3.566-8.611" transform="translate(-5.814 -27.803)" fill="#fff"/>
      <path id="Path_78" data-name="Path 78" d="M.9,19.732a.633.633,0,1,1-.53-1.15L38.726.923A.538.538,0,0,1,38.8.9,10.571,10.571,0,0,1,46.283.508a6.339,6.339,0,0,1,2.917,2.1,5.546,5.546,0,0,1,1.106,3.4c0,1.906-.874,4.122-2.92,6.425a.631.631,0,0,1-.945-.836c1.821-2.053,2.6-3.975,2.6-5.589a4.32,4.32,0,0,0-.856-2.637A5.075,5.075,0,0,0,45.846,1.7a9.318,9.318,0,0,0-6.585.371l-.008,0Zm57.649.1a.632.632,0,0,1-.524-1.15L85.365,6.138a.525.525,0,0,1,.05-.02,10.571,10.571,0,0,1,7.5-.393,6.339,6.339,0,0,1,2.918,2.1,5.561,5.561,0,0,1,1.108,3.4c0,1.908-.874,4.122-2.92,6.425a.632.632,0,0,1-.947-.836c1.823-2.053,2.6-3.973,2.6-5.589a4.32,4.32,0,0,0-.856-2.637,5.075,5.075,0,0,0-2.343-1.674,9.329,9.329,0,0,0-6.6.379L58.548,19.835Z" transform="translate(-0.003 0.004)" fill="#fff"/>
    </g>
    <g id="Group_40" data-name="Group 40" transform="translate(3.556 18.815)">
      <path id="Path_79" data-name="Path 79" d="M20.606,179.579H20.57v.036h-.488v1.346a.637.637,0,0,1-.026.2.86.86,0,0,1-.107.212c-.014.018-.036.052-.066.1a.591.591,0,0,1-.081.081.3.3,0,0,1-.163.066l-.4-.4.125-.008.066-.036.03-.022.036-.03.036-.044.03-.1.014-.058v-1.3H18.41v1.912l1.958,1.2.075.075.052.075a.183.183,0,0,1,.036.1l.014.087a.452.452,0,0,1-.119.316.337.337,0,0,1-.141.111.461.461,0,0,1-.177.058l-.349-.383.119-.066.052-.022.1-.089a.175.175,0,0,0,.028-.066l-.036-.03-.044-.036-.052-.052-2-1.185v-2H17.65v-.421H20.6v.385Zm3.808,0h-.038v.036h-1.6v1.08l.177-.1a.914.914,0,0,1,.216-.1l.2-.036a.632.632,0,0,1,.326.081.853.853,0,0,1,.443.554,1.329,1.329,0,0,1,.05.371,1.508,1.508,0,0,1-.089.554l-.1.216a1.059,1.059,0,0,1-.465.562l-.363-.385a.259.259,0,0,0,.189-.07,2.3,2.3,0,0,0,.212-.276,2.011,2.011,0,0,0,.214-.421,1.125,1.125,0,0,0,.081-.4l-.022-.141a.292.292,0,0,0-.159-.189.653.653,0,0,0-.187-.032.673.673,0,0,0-.208.04.869.869,0,0,0-.272.159l-.111.089-.133.1v1.914l-.459-.339v-1.2l-.1.058-.113.052-.282.119-.208.03a.932.932,0,0,1-.365-.089,1.038,1.038,0,0,1-.49-.522,1.165,1.165,0,0,1-.058-.361.7.7,0,0,1,.155-.455.882.882,0,0,1,.127-.133,1.233,1.233,0,0,1,.451-.206.606.606,0,0,1,.185-.014h.119l.147.022.216.465h-.147l-.111-.022H21.77a.846.846,0,0,0-.282.036.742.742,0,0,0-.318.141.313.313,0,0,0-.089.095.606.606,0,0,0-.044.216.35.35,0,0,0,.171.347l.133.044.179.014a.668.668,0,0,0,.216-.044c.06-.02.181-.075.365-.163l.066-.044.155-.1v-1.509H20.541V179.2h3.875v.385Zm6.458,0h-.038v.036h-1.6v1.08l.177-.1a.914.914,0,0,1,.216-.1l.2-.036a.632.632,0,0,1,.326.081.853.853,0,0,1,.443.554,1.33,1.33,0,0,1,.052.371,1.507,1.507,0,0,1-.089.554l-.1.216A1.042,1.042,0,0,1,30,182.8l-.363-.385a.251.251,0,0,0,.187-.07,2.3,2.3,0,0,0,.212-.276,2.015,2.015,0,0,0,.216-.421,1.125,1.125,0,0,0,.081-.4l-.022-.141a.292.292,0,0,0-.159-.189.655.655,0,0,0-.189-.032.673.673,0,0,0-.208.04.9.9,0,0,0-.274.159l-.111.089-.133.1v1.914l-.459-.339v-1.2l-.1.058-.113.052-.282.119-.208.03a.915.915,0,0,1-.363-.089,1.041,1.041,0,0,1-.492-.522,1.167,1.167,0,0,1-.06-.361.7.7,0,0,1,.155-.455,1.128,1.128,0,0,1,.125-.133,1.233,1.233,0,0,1,.451-.206.606.606,0,0,1,.185-.014H28.2l.147.022.214.465h-.147l-.111-.022H28.22a.846.846,0,0,0-.282.036.742.742,0,0,0-.318.141.313.313,0,0,0-.089.095.606.606,0,0,0-.044.216.35.35,0,0,0,.171.347l.133.044.177.014a.668.668,0,0,0,.216-.044c.06-.02.181-.075.365-.163l.066-.044.157-.1v-1.509H26.989V179.2h3.877v.385Zm2.833,0h-.036v.036h-.9v.955H31.758a.455.455,0,0,0-.177.044.3.3,0,0,0-.141.111.389.389,0,0,0-.1.163l-.028.2a.712.712,0,0,0,.208.526.7.7,0,0,0,.518.208l.177-.022.127-.044-.054-.1-.032-.169.022-.141a.363.363,0,0,1,.214-.222l.169-.03a.214.214,0,0,1,.147.044.3.3,0,0,1,.117.111l.081.147.03.155a.683.683,0,0,1-.147.437l-.058.075-.066.052.576.822-.437.125-.347-.881-.163.044-.177.014a.938.938,0,0,1-.451-.1,1.258,1.258,0,0,1-.576-.52,1.369,1.369,0,0,1-.208-.743.911.911,0,0,1,.133-.526.325.325,0,0,1,.169-.157.4.4,0,0,1,.228-.058h.794v-.518H30.738V179.2H33.7v.385Zm3.018,0h-.036v.036h-.5v3.572l-.443-.347v-1.509H34.593v.3q0,.178-.139.193a.732.732,0,0,1-.484-.292,1.441,1.441,0,0,1-.189-.27.36.36,0,0,1-.066-.193.154.154,0,0,1,.149-.171h.274v-1.279h-.665v-.421h3.254v.385Zm-.947,1.356h-.036v-1.318H34.593V180.9h1.183Zm6.192.131h-.038l.038.03-.133.069-.125.046-.149.03h-.117a.773.773,0,0,1-.663-.3.418.418,0,0,1-.058.141,1.059,1.059,0,0,1-.3.383l-.169.1.014.028.127.177.163.222.278.357.141.161.206.207a.505.505,0,0,0,.171.127l-.355.208-.244-.266-.185-.238-.185-.26-.451-.717-.133-.23-.155-.3-.066-.244.008-.075.052-.066.075-.044.075-.014.532-.008v-.977h-.983v-.421H41.56v.421H40.8v1.14l.214.081.238.028a.948.948,0,0,0,.524-.141,1.146,1.146,0,0,0,.193-.155v.5Zm2.543-1.487h-.036v.036H43.9v3.572l-.457-.339v-1.005l-.038.022-.193.1-.288.119-.23.028a.981.981,0,0,1-.748-.339.838.838,0,0,1-.111-.171l-.111-.2a1.5,1.5,0,0,1-.066-.443.741.741,0,0,1,.534-.731,2.716,2.716,0,0,1,.621-.119,1.986,1.986,0,0,1,.252-.016l.282.451h-.252a.919.919,0,0,0-.353.036.884.884,0,0,0-.6.292.5.5,0,0,0-.1.3.605.605,0,0,0,.133.4.58.58,0,0,0,.155.111.943.943,0,0,0,.266.036.736.736,0,0,0,.274-.052,1.465,1.465,0,0,0,.312-.183.736.736,0,0,0,.191-.169.214.214,0,0,0,.066-.089v-1.606H41.453V179.2h3.054v.385Zm2.168,0h-.036v.036H44.349v-.421h2.329Zm.385,2.146h-.036l.03.022a.281.281,0,0,1-.119.095l-.214.117c-.068.034-.183.083-.341.145a.952.952,0,0,1-.28.044,1.322,1.322,0,0,1-.739-.22.738.738,0,0,1-.393-.619l.014-.133a.634.634,0,0,1,.149-.324.507.507,0,0,1,.185-.167h-.681l-.191-.467h2.108l.193.467h-.739a.386.386,0,0,0-.119.052,1.078,1.078,0,0,0-.208.151l-.141.129-.1.121-.058.135a.321.321,0,0,0-.014.121.552.552,0,0,0,.036.189.346.346,0,0,0,.119.1l.163.044h.28a.961.961,0,0,0,.526-.155,1.291,1.291,0,0,0,.185-.119l.222-.179a.9.9,0,0,0,.169-.224v.681Zm2.922-2.146h-.036v.036h-.739v.51a1.56,1.56,0,0,1,.377.5,1.275,1.275,0,0,1,.111.3,1.421,1.421,0,0,1,.036.314,1.5,1.5,0,0,1-.347.991,1.229,1.229,0,0,1-.985.459,1.833,1.833,0,0,1-1.128-.33,1.049,1.049,0,0,1-.439-.891.67.67,0,0,1,.028-.193.767.767,0,0,1,.282-.31l.155-.081-.437-.393v-.872h-.3v-.421h3.425Zm-.592,1.451a.731.731,0,0,0-.1-.437.337.337,0,0,0-.28-.133.277.277,0,0,0-.141.03c-.054.01-.1.081-.147.216l-.022.141a.8.8,0,0,0,.066.318.811.811,0,0,0,.23.266.492.492,0,0,0,.119.089l.163.1.014-.066.014-.03.014-.036.052-.208a1.023,1.023,0,0,0,.022-.252m-.26.806a.481.481,0,0,1-.155-.066,1.475,1.475,0,0,1-.584-.57.708.708,0,0,1-.1-.355.691.691,0,0,1,.141-.435.519.519,0,0,1,.163-.163l.193-.111v-.518H47.325v.8l.25.34H47.6l.1-.038.111-.03.111-.02.256.435a.73.73,0,0,0-.264.044,1.472,1.472,0,0,0-.25.089c-.23.095-.355.226-.373.4a.631.631,0,0,0,.052.28.784.784,0,0,0,.463.363,1.423,1.423,0,0,0,.369.044,1.069,1.069,0,0,0,.627-.258l.183-.141.147-.133v.044Zm3.971-2.257h-.038v.036H52.5v3.564l-.459-.3V180.7H50.824a.416.416,0,0,0-.149.036l-.109.1a.563.563,0,0,0-.075.147l-.022.185a1.434,1.434,0,0,0,.1.518,1.91,1.91,0,0,0,.349.568l.185.208c.05.054.155.153.318.3l-.326.155a.441.441,0,0,1-.23-.193l-.326-.49a3.414,3.414,0,0,1-.363-.687,1.615,1.615,0,0,1-.119-.552.91.91,0,0,1,.081-.4.386.386,0,0,1,.075-.119l.089-.113.1-.081.1-.052.095-.014h1.437v-.6H49.861v-.421H53.1v.385Zm1.271,0H54.34v.036h-.578v3.572l-.457-.339v-3.232h-.451V179.2h1.523v.385Zm6.413,0h-.036v.036h-1.6v1.08l.177-.1a.914.914,0,0,1,.216-.1l.2-.036a.632.632,0,0,1,.326.081.853.853,0,0,1,.443.554,1.33,1.33,0,0,1,.052.371,1.508,1.508,0,0,1-.089.554l-.1.216a1.059,1.059,0,0,1-.465.562l-.363-.385a.259.259,0,0,0,.189-.07,2.3,2.3,0,0,0,.212-.276,2.011,2.011,0,0,0,.214-.421,1.125,1.125,0,0,0,.081-.4l-.022-.141a.3.3,0,0,0-.159-.189.655.655,0,0,0-.189-.032.673.673,0,0,0-.208.04.9.9,0,0,0-.274.159l-.111.089-.133.1v1.914l-.459-.339v-1.2l-.1.058-.113.052-.282.119-.21.03a.923.923,0,0,1-.363-.089,1.041,1.041,0,0,1-.492-.522,1.167,1.167,0,0,1-.06-.361.7.7,0,0,1,.155-.455,1.128,1.128,0,0,1,.125-.133,1.233,1.233,0,0,1,.451-.206.6.6,0,0,1,.185-.014h.119l.147.022.216.465h-.147l-.113-.022h-.081a.825.825,0,0,0-.28.036.742.742,0,0,0-.318.141.29.29,0,0,0-.089.095.606.606,0,0,0-.044.216.35.35,0,0,0,.171.347l.133.044.179.014a.668.668,0,0,0,.216-.044c.06-.02.181-.075.365-.163l.067-.044.157-.1v-1.509H56.913V179.2h3.875v.385Zm1.249,0H62v.036h-.5v3.572l-.459-.339v-3.232h-.385V179.2h.5a1.282,1.282,0,0,0-.066-.216,2.442,2.442,0,0,0-.222-.391q-.357-.541-.731-.54a.53.53,0,0,0-.185.036.537.537,0,0,0-.208.266,1.149,1.149,0,0,0-.044.252l.022.193.058.177a.59.59,0,0,0,.1.139,1.052,1.052,0,0,0,.208.163h-.31a.293.293,0,0,1-.119-.1l-.147-.2a1.162,1.162,0,0,1-.169-.308.874.874,0,0,1-.058-.292.8.8,0,0,1,.052-.29.994.994,0,0,1,.141-.24.667.667,0,0,1,.238-.163.717.717,0,0,1,.288-.06q.541,0,1.022.751c.079.123.179.3.3.524a.831.831,0,0,1,.1.294h.6v.385Zm6.953,0h-.036v.03h-.5v3.578L68,182.841v-1.523l-.022.014-.095.042c-.014,0-.054.016-.117.04h-.133a.7.7,0,0,1-.419-.115c-.038-.02-.1-.058-.191-.117l-.133-.093-.169-.137.052-.05.1.171.1.155.155.3.05.2a.854.854,0,0,1-.665.866.8.8,0,0,1-.238.03,1.072,1.072,0,0,1-.82-.429,5.106,5.106,0,0,1-.512-.828,1.888,1.888,0,0,1-.191-.526,1.058,1.058,0,0,1-.03-.228l.258-.135a2.062,2.062,0,0,0,.274.911,1.546,1.546,0,0,0,.425.55.831.831,0,0,0,.506.173.533.533,0,0,0,.421-.169.689.689,0,0,0,.141-.288,1.084,1.084,0,0,0,.006-.133.916.916,0,0,0-.052-.322.574.574,0,0,0-.163-.234l-.177.075-.208.03-.193-.038-.28-.415h.163a.891.891,0,0,0,.717-.254.348.348,0,0,0,.089-.226.706.706,0,0,0-.03-.224.354.354,0,0,0-.119-.165.526.526,0,0,0-.363-.143l-.155.016-.163.054a.567.567,0,0,0-.318.212l-.26-.429.133-.081.1-.052a.965.965,0,0,1,.266-.1l.177-.038h.111a.5.5,0,0,1,.3.081,1.264,1.264,0,0,1,.592.607.819.819,0,0,1,.1.385v.169a.9.9,0,0,1-.075.224l-.111.125-.066.06.109.081.149.058.147.044.169.008h.089l.081-.014L67.59,181l.089-.03.169-.058.147-.091v-1.211h-.764L67,179.192h1.991v.393Zm1.362,0h-.038v.036H69.74v3.572l-.459-.339v-3.232h-.449V179.2h1.523v.385Zm-.667-.421c.01.02.01.032,0,.038s-.032.016-.081.016l.058.058h-.24l-.1-.153-.717-.9a.278.278,0,0,0-.1-.081l-.155-.03h-.709l-.258-.548h.842a.584.584,0,0,1,.155.016l.149.014.044.008a.137.137,0,0,1,.066.022l.252.349.286.421.1.141.089.141.1.147.1.155.123.181Zm3.365.421h-.036v.036H71.994l.052.266.028.28a2.033,2.033,0,0,1-.584,1.388,1.816,1.816,0,0,0,.2.363l.268.387.326.363a2.007,2.007,0,0,0,.385.3l-.371.216-.252-.3-.208-.282-.236-.341-.177-.266-.34-.518-.163-.288-.1-.216-.036-.2c0-.113.058-.169.177-.169l.592-.008v-.977H70.211v-.421h2.841v.385Z" transform="translate(-17.65 -160.599)" fill="#fff"/>
      <path id="Path_80" data-name="Path 80" d="M43.4,95.8h-.046l.046.04-.171.089-.161.06-.191.04h-.151a.987.987,0,0,1-.852-.381.5.5,0,0,1-.077.179,1.368,1.368,0,0,1-.389.494l-.218.123.02.038.163.228.212.286.359.457.179.21.266.266a.6.6,0,0,0,.218.161l-.457.266-.314-.343-.238-.3-.238-.332-.58-.923-.171-.294-.2-.391-.085-.314.01-.095.066-.085.095-.058.095-.018.685-.01V93.932H40.01V93.39h2.863v.542h-.979V95.4l.276.1.3.038a1.229,1.229,0,0,0,.675-.181,1.584,1.584,0,0,0,.248-.2V95.8Zm3.272-1.91h-.048v.048h-.741V98.53l-.59-.437V96.8l-.048.03L45,96.952l-.371.151-.294.038a1.253,1.253,0,0,1-.961-.437.962.962,0,0,1-.143-.22l-.143-.256a1.935,1.935,0,0,1-.085-.57.949.949,0,0,1,.685-.941,3.4,3.4,0,0,1,.8-.153,2.727,2.727,0,0,1,.322-.018l.361.58h-.322a1.187,1.187,0,0,0-.453.048,1.137,1.137,0,0,0-.776.375.631.631,0,0,0-.123.385.787.787,0,0,0,.169.516.729.729,0,0,0,.2.141,1.169,1.169,0,0,0,.341.048.988.988,0,0,0,.353-.066,2.035,2.035,0,0,0,.4-.238.961.961,0,0,0,.246-.22A.259.259,0,0,0,45.287,96V93.94H42.738V93.4h3.929v.5Zm2.787,0h-.048v.048H46.464v-.542h3v.5Zm.494,2.758H49.9l.038.028a.343.343,0,0,1-.151.121l-.276.151c-.089.042-.236.107-.437.187a1.323,1.323,0,0,1-.361.056,1.685,1.685,0,0,1-.951-.284.951.951,0,0,1-.5-.8l.018-.169a.823.823,0,0,1,.189-.417.646.646,0,0,1,.238-.218h-.874l-.248-.6H49.3l.248.6h-.951a.5.5,0,0,0-.153.068,1.513,1.513,0,0,0-.266.2l-.181.165-.133.155-.077.173a.434.434,0,0,0-.018.155.753.753,0,0,0,.046.246.472.472,0,0,0,.153.125l.21.06h.361a1.23,1.23,0,0,0,.675-.2,1.685,1.685,0,0,0,.238-.153l.286-.232a1.2,1.2,0,0,0,.22-.288v.874Zm3.758-2.758h-.048v.048h-.951v.657a2.032,2.032,0,0,1,.486.637,1.7,1.7,0,0,1,.143.385,1.764,1.764,0,0,1,.048.4,1.915,1.915,0,0,1-.447,1.273,1.58,1.58,0,0,1-1.265.59,2.356,2.356,0,0,1-1.451-.423,1.356,1.356,0,0,1-.566-1.146.761.761,0,0,1,.038-.248,1,1,0,0,1,.363-.4l.2-.1-.562-.5V93.936h-.389v-.542h4.4v.5Zm-.762,1.864a.93.93,0,0,0-.133-.562.431.431,0,0,0-.361-.171.357.357,0,0,0-.181.038c-.069.012-.133.1-.189.276l-.028.181a1.04,1.04,0,0,0,.085.409,1.077,1.077,0,0,0,.294.343.619.619,0,0,0,.151.113l.21.133.02-.085.02-.038.018-.048.066-.266a1.46,1.46,0,0,0,.028-.322m-.334,1.036a.617.617,0,0,1-.2-.085,1.9,1.9,0,0,1-.752-.733.911.911,0,0,1,.048-1.02.643.643,0,0,1,.21-.21l.246-.143v-.665H50.284V94.96l.32.437h.038l.131-.048.143-.038.141-.028.33.562a.888.888,0,0,0-.338.056,1.948,1.948,0,0,0-.322.115c-.294.121-.455.292-.48.514a.817.817,0,0,0,.066.361,1,1,0,0,0,.6.465,1.86,1.86,0,0,0,.473.056,1.358,1.358,0,0,0,.8-.332l.236-.181.189-.171v.056Z" transform="translate(-35.505 -93.388)" fill="#fff"/>
      <path id="Path_81" data-name="Path 81" d="M205.5,93.88h-.048v.046h-.58l-.314-.542h.943Zm.494,2.226h-.048v.046h-1.283v.532a.251.251,0,0,1-.018.1l-.038.075-.1.058-.085.018a.466.466,0,0,1-.266-.1l-.191-.145a1.727,1.727,0,0,1-.619-.747.514.514,0,0,1-.046-.191l.018-.069.056-.066.077-.038.077-.01h.57v-.478l-.447-.026a1.128,1.128,0,0,1-.619-.266.765.765,0,0,1-.294-.655.982.982,0,0,1,.048-.332.713.713,0,0,1,.637-.427h.115a1.547,1.547,0,0,1,.762.256.73.73,0,0,1,.276.272.805.805,0,0,1,.085.377V95.57h1.332V96.1ZM204.1,94.764v-.723l-.028-.085-.066-.077a.307.307,0,0,0-.113-.056l-.123-.018a.7.7,0,0,0-.447.123.386.386,0,0,0-.113.314.3.3,0,0,0,.077.2.9.9,0,0,0,.21.175l.258.1.256.038.066-.01.028.02Zm3.109-.885h-.048v.046h-.741V98.52l-.59-.437V93.926h-.58v-.542h1.958v.5Zm1.636,0H208.8v.046h-.741V98.52l-.588-.437V93.926h-.58v-.542h1.958v.5Zm3.423,0h-.048v.046H210.91l.066.343.038.361a2.6,2.6,0,0,1-.752,1.785,2.151,2.151,0,0,0,.262.465l.347.5.419.465a2.671,2.671,0,0,0,.494.391l-.475.276-.324-.389-.266-.363-.3-.437-.228-.343-.437-.667-.21-.371-.133-.276-.046-.258a.2.2,0,0,1,.228-.22l.762-.01V93.922h-1.731V93.38h3.653v.5Zm3.8,0h-.048v.046h-.731V98.51l-.588-.389V95.314h-1.562a.519.519,0,0,0-.191.048l-.141.133a.666.666,0,0,0-.095.189l-.028.238a1.826,1.826,0,0,0,.133.665,2.44,2.44,0,0,0,.447.733l.238.266c.064.071.2.2.409.381l-.419.2a.567.567,0,0,1-.294-.248l-.417-.631a4.429,4.429,0,0,1-.465-.88,2.041,2.041,0,0,1-.153-.709,1.152,1.152,0,0,1,.1-.516.511.511,0,0,1,.095-.153l.113-.145.133-.1.125-.066.123-.018h1.848v-.772h-2.8v-.542h4.167v.5Z" transform="translate(-165.447 -93.38)" fill="#fff"/>
    </g>
  </g>
</svg>
