<svg id="facebook" xmlns="http://www.w3.org/2000/svg" width="36" height="36" viewBox="0 0 36 36">
  <g id="Group_70" data-name="Group 70">
    <g id="Group_69" data-name="Group 69">
      <path id="Path_154" data-name="Path 154" d="M211.09,154.545v1.636h-1.636v2.455h1.636V166h3.273v-7.364h2.176l.278-2.455h-2.455v-1.432c0-.663.065-1.015,1.088-1.015h1.366v-2.463h-2.193C212.007,151.272,211.09,152.5,211.09,154.545Z" transform="translate(-194.727 -140.636)" fill="#fff"/>
      <path id="Path_155" data-name="Path 155" d="M18,0A18,18,0,1,0,36,18,18,18,0,0,0,18,0Zm0,34.364A16.364,16.364,0,1,1,34.364,18,16.364,16.364,0,0,1,18,34.364Z" fill="#fff"/>
    </g>
  </g>
</svg>
