<svg id="Layer_1" data-name="Layer 1" xmlns="http://www.w3.org/2000/svg" xmlns:xlink="http://www.w3.org/1999/xlink" width="64.736" height="41.767" viewBox="0 0 64.736 41.767">
  <defs>
    <clipPath id="clip-path">
      <path id="Path_1" data-name="Path 1" d="M470.13,97.646a.492.492,0,0,0-.267.126c-.016.024.014.06.03.059a.294.294,0,0,1,.183.03c.1.049.351-.166.054-.213" transform="translate(-469.859 -97.645)" fill="none"/>
    </clipPath>
    <radialGradient id="radial-gradient" cx="16.532" cy="-16.574" r="16.838" gradientTransform="matrix(0, 1, 1.879, 0, -238.358, 39.879)" gradientUnits="objectBoundingBox">
      <stop offset="0" stop-color="#badcf4"/>
      <stop offset="0.1" stop-color="#9acfee"/>
      <stop offset="0.37" stop-color="#48afde"/>
      <stop offset="0.57" stop-color="#149bd4"/>
      <stop offset="0.66" stop-color="#0094d1"/>
      <stop offset="0.85" stop-color="#007fc3"/>
      <stop offset="1" stop-color="#0074bc"/>
    </radialGradient>
    <clipPath id="clip-path-2">
      <path id="Path_2" data-name="Path 2" d="M471.126,95.854c.034.079.441-.094.487-.16.084-.12-.547.027-.487.16" transform="translate(-471.122 -95.649)" fill="none"/>
    </clipPath>
    <radialGradient id="radial-gradient-2" cx="11.708" cy="-15.347" r="15.377" gradientTransform="matrix(0, 1, 1.612, 0, -187.798, 61.375)" xlink:href="#radial-gradient"/>
    <clipPath id="clip-path-3">
      <path id="Path_3" data-name="Path 3" d="M467.238,96.8a.168.168,0,0,0-.2.074.071.071,0,0,1-.064.033c-.331-.007-.32.341-.06.171a.95.95,0,0,1,.213-.114c.113-.039.169-.156.109-.164" transform="translate(-466.725 -96.797)" fill="none"/>
    </clipPath>
    <radialGradient id="radial-gradient-3" cx="9.761" cy="-14.014" r="14.707" gradientTransform="matrix(0, 1, 1.328, 0, -146.107, 81.454)" xlink:href="#radial-gradient"/>
    <clipPath id="clip-path-4">
      <path id="Path_4" data-name="Path 4" d="M470.733,85.146c-.111-.063.046-.1-.093-.213a.11.11,0,0,1-.031-.07c-.006-.17-.166-.194-.077-.28a.191.191,0,0,1,.061-.051c.1-.039.171-.363-.207-.084-.033.024-.044.084-.077.1-.05.02-.13-.116-.2-.073-.2.127-.113.114-.208.41-.144.444.1.194.086.407a2.188,2.188,0,0,0-.031.221c0,.124.233.079.267-.11.043-.243.039-.306.087-.307.093,0,.01.147.144.164.086.01.016.107.146.086.1-.017.214-.147.128-.194" transform="translate(-469.858 -84.336)" fill="none"/>
    </clipPath>
    <radialGradient id="radial-gradient-4" cx="2.849" cy="-8.228" r="8.603" gradientTransform="matrix(0, 1, 0.759, 0, -50.041, 78.135)" xlink:href="#radial-gradient"/>
    <clipPath id="clip-path-5">
      <path id="Path_5" data-name="Path 5" d="M468.252,55.39c.056.017.08.041.076.1s.047.06.056.091-.044.116-.013.134.037.063.057.094c.14.216.266-.059.186-.17-.013-.017-.036-.031-.04-.05-.011-.05.01-.106.064-.089.137.041.137-.084.244.033.064.07.19.006.166-.053-.011-.029-.077-.188-.108-.188-.1,0-.2-.046-.286.039-.033.033-.041.007-.053-.019-.19-.434.036-.317,0-.52.007-.117.013-.123-.019-.16-.1-.121.033-.26-.3-.237s-.011.567-.137.633a.071.071,0,0,0-.033.107c.031.066.033.223.141.257" transform="translate(-468.097 -54.393)" fill="none"/>
    </clipPath>
    <radialGradient id="radial-gradient-5" cx="0.189" cy="-7.303" r="8.092" gradientTransform="matrix(0, 1, 0.718, 0, -46.634, 78.53)" xlink:href="#radial-gradient"/>
    <clipPath id="clip-path-6">
      <path id="Path_6" data-name="Path 6" d="M365.634,68.776c-.04-.007-.044.041-.054.076.111.283.517.009.054-.076" transform="translate(-365.58 -68.775)" fill="none"/>
    </clipPath>
    <radialGradient id="radial-gradient-6" cx="5.27" cy="9.226" r="18.558" gradientTransform="matrix(0, 1, 1.336, 0, -159.973, 73.995)" xlink:href="#radial-gradient"/>
    <clipPath id="clip-path-7">
      <path id="Path_7" data-name="Path 7" d="M398.2,141.4c-.247-.026-.154.154,0,.154s.076-.146,0-.154" transform="translate(-398.052 -141.402)" fill="none"/>
    </clipPath>
    <radialGradient id="radial-gradient-7" cx="61.931" cy="1.344" r="24.364" gradientTransform="matrix(0, 1, 1.953, 0, -280.062, -16.695)" xlink:href="#radial-gradient"/>
    <clipPath id="clip-path-8">
      <path id="Path_8" data-name="Path 8" d="M406.33,78.53a1.935,1.935,0,0,1-.08.416c.083.378,0,.273.176.45a.354.354,0,0,0,.444-.137c.156-.306-.548-.98-.54-.728" transform="translate(-406.25 -78.475)" fill="none"/>
    </clipPath>
    <radialGradient id="radial-gradient-8" cx="3.11" cy="-0.896" r="11.621" gradientTransform="matrix(0, 1, 0.7, 0, -55.807, 103.377)" xlink:href="#radial-gradient"/>
    <clipPath id="clip-path-9">
      <path id="Path_9" data-name="Path 9" d="M357.195,104.579c-.063-.066-.183-.1-.206,0,0,.02,0,.043,0,.064-.026.113-.073-.013-.127.186-.011.039-.027.071-.068.081-.436.109-.413-.017-.433.15-.029.24.074.25.187.5.147.321-.324-.03.27.818a.756.756,0,0,0,.541.277c.25-.023.036-.62.084-.841.067-.3-.076-.5.049-.564.05-.026.059-.054.024-.087-.144-.137-.071-.328-.32-.587" transform="translate(-356.356 -104.516)" fill="none"/>
    </clipPath>
    <radialGradient id="radial-gradient-9" cx="4.106" cy="4.012" r="6.474" gradientTransform="matrix(0, 1, 0.677, 0, -25.053, 52.804)" xlink:href="#radial-gradient"/>
    <clipPath id="clip-path-10">
      <path id="Path_10" data-name="Path 10" d="M436.315,90.275c.126,0,.166-.1.137-.117-.313-.236-.323.039-.137.117" transform="translate(-436.192 -90.065)" fill="none"/>
    </clipPath>
    <radialGradient id="radial-gradient-10" cx="11.424" cy="-13.363" r="26.65" gradientTransform="matrix(0, 1, 0.996, 0, -189.636, 190.985)" xlink:href="#radial-gradient"/>
    <clipPath id="clip-path-11">
      <path id="Path_11" data-name="Path 11" d="M453.246,92.99c-.106.017-.169.014-.156.169s.421-.077.156-.169" transform="translate(-453.088 -92.99)" fill="none"/>
    </clipPath>
    <radialGradient id="radial-gradient-11" cx="12.49" cy="-16.673" r="22.016" gradientTransform="matrix(0, 1, 1.278, 0, -206.513, 124.211)" xlink:href="#radial-gradient"/>
    <clipPath id="clip-path-12">
      <path id="Path_12" data-name="Path 12" d="M465.8,44.119a.922.922,0,0,0,.021-.474c-.016-.066.086-.121-.037-.206-.2-.14-.23.147-.3.408.056.394.284.418.311.271" transform="translate(-465.49 -43.403)" fill="none"/>
    </clipPath>
    <radialGradient id="radial-gradient-12" cx="-1.849" cy="-17.306" r="20.312" gradientTransform="matrix(0, 1, 0.499, 0, -82.807, 226.598)" xlink:href="#radial-gradient"/>
    <clipPath id="clip-path-13">
      <path id="Path_13" data-name="Path 13" d="M456.617,77.045c.029-.066-.053-.1.037-.213.176-.217.158-.063.167-.437,0-.153.287-.106.226-.22s-.177-.081-.179-.193-.2-.274.006-.451c.046-.039.1-.064.06-.141l.017-.04c.057-.066.15-.131.037-.169-.213-.071-.218-.031-.271-.11-.2-.3-.494.348-.5.436s-.08.051-.134.1c-.249.211-.157.14-.319.4-.176.28-.408.107-.433.406-.01.124-.059.119-.2.119v0c-.059,0-.138-.01-.18.041-.167.2-.116.36-.012.6.074.173.19.047.2.191.007.163-.061.348.307.2a.11.11,0,0,1,.056.009c-.02.169.473-.217.615-.023.083.113.126-.061.38-.13.163-.043.047-.2.123-.371" transform="translate(-454.844 -74.992)" fill="none"/>
    </clipPath>
    <radialGradient id="radial-gradient-13" cx="1.442" cy="-2.958" r="3.947" gradientTransform="matrix(0, 1, 0.814, 0, -24.313, 34.368)" xlink:href="#radial-gradient"/>
    <clipPath id="clip-path-14">
      <path id="Path_14" data-name="Path 14" d="M337.225,0A11.145,11.145,0,1,0,348.37,11.145,11.157,11.157,0,0,0,337.225,0m9.669,15.573q-.041.047-.077.1c-.208.293-.862.481-1.151.727a1.338,1.338,0,0,1-.34.214c-.156.069-.063.143-.21.348a.221.221,0,0,0-.017.243c.081.17-.116.107-.064.273.081.26.089.267.071.321-.067.23.174.14-.216.518-.04.039.029.061.116.069a10.629,10.629,0,0,1-18.141-4.831,12.7,12.7,0,0,0,2.487,3.331c.386.337.24-.131.247-.221s-.026-.149-.148-.37c-.059-.106-.02-.066.087-.08.049-.007.083-.053.061-.093a1.649,1.649,0,0,0-.17-.346c-.061-.071-.31-.408-.167-.433s.086-.184.333-.146c.14.021.254-.2.167-.371a4.142,4.142,0,0,1-.183-.67c-.053-.243-.187-.188-.284-.553-.09-.341.021-.213-.118-.44-.127-.2-.01-.336.077-.591a.155.155,0,0,1,.061-.091c.348-.218.147-.3.771-.641a.434.434,0,0,0,.266-.14,2.042,2.042,0,0,0,.625-.842,1.584,1.584,0,0,0,.263-.454,2.332,2.332,0,0,0,.084-.256c-.053-.114.08-.217-.03-.267-.189-.087-.15.037-.268.027a3.4,3.4,0,0,0-.568-.05.1.1,0,0,1-.077,0c-.19-.1-.32.056-.4-.094-.144-.268-.164-.288-.091-.334l.019-.041c-.04-.156.11.087.343-.04.159-.087.161.046.326-.006.191-.059.194-.009.284-.02.068-.01.121-.084.2-.091.791-.08.48-.11.587-.208.219-.2.528.07.634-.173.056-.127.217.02.27-.143.061-.188.317.056.284-.234-.007-.064.16-.131.2-.2.171-.293.408-.338.256-.5s-.073-.243-.333-.374a.34.34,0,0,1-.15-.5c.039-.07-.034-.193-.113-.106a1.576,1.576,0,0,1-.393.3c-.12.067-.047-.017-.358.006-.18.013-.08-.224-.051-.354.026-.114-.049-.218-.133-.153-.021.016-.039.039-.06.051l-.037-.017c-.017-.074.06-.131-.023-.328-.361-.858.056-.651.166-.638.131.347.044.578.206.614.06.014.083.066.11.111.206.34.524.388.644.281a.076.076,0,0,1,.119.036c.063.126-.19.276.484.468a1.471,1.471,0,0,0,.588.149c.284,0,.278.044.447.043.533,0,.237.051.343.121s.088.268.248.318c.06.019.121.16.206.22s-.049.07-.014.159a3.931,3.931,0,0,0,.3.378.336.336,0,0,0,.41-.066c.171-.216-.016.634.146.86a1.153,1.153,0,0,0,.086.417c.036.053.026.119.069.171.191.238.157.633.354.832.107.109.25.807.475.864.246.061.2-.167.307-.21.13-.05.123-.073.171-.21.034-.1.166-.01.164-.2,0-.161-.094-.2,0-.306.126-.15.066-.591.034-.671-.063-.167.139-.153.2-.218.113-.126.3-.054.318-.231.011-.131.3-.2.48-.461a.733.733,0,0,1,.323-.26c.341-.143.114-.314.274-.4.114-.063.313.006.487-.089.109-.059.286.01.3-.177.006-.054.1-.046.117-.016.091.157.076.4.394.535.174.074.034.159.191.276.36.271-.061.581.194.691.233.1.271-.041.528-.213.113-.076.253.254.231.38,0,.011-.034.019-.011.034.084.057.078.176.164.233.026.071.094.134.039.224a.105.105,0,0,0,.016.09c.047.067.1.5.017.573l-.01.029c.083.114-.024.266.116.327a1.21,1.21,0,0,1,.42.467,1.211,1.211,0,0,0,.331.705c-.27,0-.223-.144-.584-.258-.133-.041-.213-.276-.386-.26-.111.01-.577-.066-.547.027a.463.463,0,0,0,.069.174.59.59,0,0,0,.263.18c.243.067.25.291.364.31.3.046.11.338.346.4.081.021.067.044.234.236.123.14.076.276.337.414.176.094.03.123.356.238.194.07.2.187.363.113.066-.031.227-.037.183.071s-.011.143.009.139c.15-.029.107.086.248.06.069-.011.136-.04.2.014.009.007.03,0,.044,0,.383-.15.72.02,1.122-.163.066-.03.37.087.353-.178-.01-.153-.211.006-.286-.029.033-.066.194-.069.169-.164-.009-.033-.136,0-.167.006-.39.12-.514-.02-.658.154a.335.335,0,0,1-.333.026c-.023-.013-.154-.013-.189-.021a1.441,1.441,0,0,0-.374-.011c.089-.139-.071-.433.121-.537.128-.07-.02-.146-.064-.223a.183.183,0,0,0-.314.007c-.046.076-.037-.067-.1-.119a.279.279,0,0,0-.187-.07c.056-.243.1-.123-.12-.32-.079-.071.314-.036.206-.214-.064-.106-.211-.18-.193-.457.021-.323-.428-.486-.49-.551-.1-.107-.221.054-.251-.153a.262.262,0,0,0-.08-.17c-.116-.091,0-.183-.16-.206-.316-.046.09-.473.021-.76-.023-.1.078-.214.109-.154.11.23-.127.071.426.223.183.05.046.216.194.223.066,0,.073.079.129.089.321.063.24.059.281.344a.064.064,0,0,0,.1.039.686.686,0,0,0,.073-.084c.161-.2.137-.061.281-.346.083-.161.812-.278.354-1.2-.21-.42-.508-.361-.633-.593-.1-.18-.167-.077-.21-.233-.056-.2.1-.33.324-.637.094-.131.317-.11.33-.059.023.089.127.211.091.238-.274.214-.233.194-.2.406.026.153.274.06.34.04.041-.074.126-.124.134-.214a.565.565,0,0,1,.057-.2c.02-.037-.029-.114-.1-.107-.034,0-.05-.013-.051-.046l0-.031c-.126-.213.314-.264.484-.47.066-.08.193-.083.22-.2l.029-.014c.441-.1.653-.871.718-.937s-.01-.134.009-.2a5.019,5.019,0,0,1,.114-.5c.109-.208.03-.1.037-.27.006-.147-.041-.16,0-.251h0A10.566,10.566,0,0,1,347.626,8.9c-.121-.1-.353.021-.2.17.116.11-.1.09.053.274.111.131-.05.09-.106.206l-.037.01c-.02,0,.013-.133.014-.154,0-.06-.079-.05-.093-.1-.023-.084-.091-.07-.176-.056s-.131.03-.1.226c.02.139.2,0,.167.1-.049.147-.084.157.007.223.19.134.168-.111.268-.136s.143-.1.228-.291c.047-.106-.08-.071.03-.186.019.1.037.2.053.307-.026.006-.044.017-.043.039.016.173-.093.146-.14.27s-.136-.014-.244.109a2.981,2.981,0,0,0-.193.237c-.014.177-.034.251.031.241.091-.014.07-.05.11-.14.031-.07.231-.2.231-.1,0,.149-.081.266.264.27a.158.158,0,0,0,.084-.024c.017.247.027.5.027.745,0,.066,0,.131,0,.2-.007-.011-.021-.014-.04-.011-.116.02-.143.168-.228.214-.3.16-.378.06-.54.137-.089.041-.144.153-.081.223.811-.233.723-.19.867-.454a.318.318,0,0,0,.021-.05,10.632,10.632,0,0,1-.313,2.32l-.011.011a.139.139,0,0,0-.039.181,10.713,10.713,0,0,1-.6,1.662ZM329.727,3.611a.232.232,0,0,0,.057.007c.1-.033.168-.04.16-.114a.09.09,0,0,0-.034-.07c.057-.054.114-.109.173-.161.058-.017.081.043.136.08.083.056-.051.067-.089.286-.019.107-.2.24-.435.573-.17.241-.336.137-.393.027a.514.514,0,0,0-.069-.1q.238-.27.493-.525Zm.111,5.318c.033.163-.021.351-.2-.133-.1-.267-.23-.293-.224-.417l0-.016c-.131-.076-.05-.2-.076-.287.05-.5-.249-.523-.131-.954a.878.878,0,0,0,0-.613c-.129-.291.026-.2-.03-.5-.014-.08.02-.157.007-.237s-.041-.574.036-.557c.041.01.089-.039.13.023.064.094.054.908.114,1.008.171.288.023.563.043.878.01.153.161.228.131.353.106.141.021.284.131.534.188.428-.023.447.07.915Z" transform="translate(-326.08 0)" fill="none"/>
    </clipPath>
    <radialGradient id="radial-gradient-14" cx="0.522" cy="0.314" r="0.381" gradientTransform="matrix(1, 0, 0, -1, 0, 12.916)" gradientUnits="objectBoundingBox">
      <stop offset="0" stop-color="#b9e5fb"/>
      <stop offset="0.06" stop-color="#a6dcf7"/>
      <stop offset="0.36" stop-color="#4db6e4"/>
      <stop offset="0.56" stop-color="#159ed9"/>
      <stop offset="0.66" stop-color="#0095d5"/>
      <stop offset="0.85" stop-color="#007fc5"/>
      <stop offset="1" stop-color="#0074bc"/>
    </radialGradient>
    <clipPath id="clip-path-15">
      <path id="Path_15" data-name="Path 15" d="M428.639,70.81a.038.038,0,0,0-.037.021.023.023,0,0,0,.023.03l.011-.03-.031-.016" transform="translate(-428.601 -70.81)" fill="none"/>
    </clipPath>
    <radialGradient id="radial-gradient-15" cx="20.902" cy="-86.324" r="214.817" gradientTransform="matrix(0, 1, 0.805, 0, -1261.769, 1838.685)" gradientUnits="objectBoundingBox">
      <stop offset="0" stop-color="#badcf4"/>
      <stop offset="0.09" stop-color="#9dd4f1"/>
      <stop offset="0.37" stop-color="#49bee9"/>
      <stop offset="0.57" stop-color="#14b1e3"/>
      <stop offset="0.66" stop-color="#00ace2"/>
      <stop offset="0.75" stop-color="#009bd6"/>
      <stop offset="0.91" stop-color="#007ec3"/>
      <stop offset="1" stop-color="#0074bc"/>
    </radialGradient>
    <clipPath id="clip-path-16">
      <path id="Path_16" data-name="Path 16" d="M427.766,71.877l0,.144a.05.05,0,0,0,.013.04l.019.016-.011.026-.027.011c-.044.023-.03.093-.057.136a.343.343,0,0,1,.011-.241.5.5,0,0,1-.037-.091.192.192,0,0,1,.043-.1c.011-.017.03-.071.058-.05s-.017.081-.016.107" transform="translate(-427.68 -71.765)" fill="none"/>
    </clipPath>
    <radialGradient id="radial-gradient-16" cx="3.564" cy="-23.375" r="59.571" gradientTransform="matrix(0, 1, 0.333, 0, -143.75, 689.256)" xlink:href="#radial-gradient-15"/>
    <clipPath id="clip-path-17">
      <path id="Path_17" data-name="Path 17" d="M427.359,75.589a.032.032,0,0,0-.04.011.07.07,0,0,0-.006.046.071.071,0,0,0,.01.039.032.032,0,0,0,.034.016c.02-.006.024-.033.02-.054a.157.157,0,0,0-.027-.066" transform="translate(-427.312 -75.58)" fill="none"/>
    </clipPath>
    <radialGradient id="radial-gradient-17" cx="23.033" cy="-33.536" r="124.368" gradientTransform="matrix(0, 1, 0.62, 0, -555.459, 1203.423)" xlink:href="#radial-gradient-15"/>
    <clipPath id="clip-path-18">
      <path id="Path_18" data-name="Path 18" d="M427.958,77.74a.036.036,0,0,0-.019.033.022.022,0,0,0,.027.02c.017-.009.009-.036,0-.051" transform="translate(-427.939 -77.74)" fill="none"/>
    </clipPath>
    <radialGradient id="radial-gradient-18" cx="51.047" cy="-52.52" r="196.916" gradientTransform="matrix(0, 1, 0.837, 0, -1185.555, 1623.591)" xlink:href="#radial-gradient-15"/>
    <clipPath id="clip-path-19">
      <path id="Path_19" data-name="Path 19" d="M428.349,78.971c-.014,0-.013.026,0,.034l.037.021c.013.013.011.034.013.051s.007.04.024.044.034-.014.034-.033a.064.064,0,0,0-.028-.046l-.02-.016-.013-.037-.02-.031-.026.017" transform="translate(-428.339 -78.96)" fill="none"/>
    </clipPath>
    <radialGradient id="radial-gradient-19" cx="18.806" cy="-26.177" r="74.621" gradientTransform="matrix(0, 1, 0.772, 0, -413.574, 645.41)" xlink:href="#radial-gradient-15"/>
    <clipPath id="clip-path-20">
      <path id="Path_20" data-name="Path 20" d="M429.2,80.654c-.006-.019-.013-.036-.018-.054-.017,0-.029.021-.026.039a.1.1,0,0,0,.027.044c.019.021.037.041.057.063l.01.006.009,0a.042.042,0,0,0,0-.057c-.011-.013-.031-.016-.046-.026s-.027-.03-.016-.043" transform="translate(-429.157 -80.6)" fill="none"/>
    </clipPath>
    <radialGradient id="radial-gradient-20" cx="20.143" cy="-27.473" r="75.415" gradientTransform="matrix(0, 1, 0.832, 0, -449.538, 622.308)" xlink:href="#radial-gradient-15"/>
    <clipPath id="clip-path-21">
      <path id="Path_21" data-name="Path 21" d="M395.046,79.241a.618.618,0,0,0,.03.126.069.069,0,0,0,.03-.089.193.193,0,0,0-.066-.079c0,.014.01.029.014.043" transform="translate(-395.04 -79.2)" fill="none"/>
    </clipPath>
    <radialGradient id="radial-gradient-21" cx="23.141" cy="12.799" r="110.766" gradientTransform="matrix(0, 1, 0.529, 0, -392.49, 1104.302)" xlink:href="#radial-gradient-15"/>
    <clipPath id="clip-path-22">
      <path id="Path_64" data-name="Path 64" d="M56.8,19.158a11.129,11.129,0,0,0,22.213,1l.156-1.746H67.641v2.636H76.21a8.511,8.511,0,1,1-2.279-7.9l.464.464,1.863-1.865-.464-.464A11.128,11.128,0,0,0,56.8,19.159" transform="translate(-56.8 -8.03)" fill="none"/>
    </clipPath>
    <linearGradient id="linear-gradient" x1="5.298" y1="6.467" x2="5.304" y2="6.467" gradientUnits="objectBoundingBox">
      <stop offset="0" stop-color="#f7931e"/>
      <stop offset="0.23" stop-color="#f7941d"/>
      <stop offset="0.36" stop-color="#c59226"/>
      <stop offset="0.6" stop-color="#718e35"/>
      <stop offset="0.79" stop-color="#348c41"/>
      <stop offset="0.93" stop-color="#0e8a48"/>
      <stop offset="1" stop-color="#008a4b"/>
    </linearGradient>
    <clipPath id="clip-path-23">
      <path id="Path_65" data-name="Path 65" d="M206.6,11.385a6.9,6.9,0,0,0-2.033,2.092l-.153.244,1.955,1.956.224-.453a4.264,4.264,0,0,1,1.452-1.645,4.181,4.181,0,0,1,3.406-.54,4.25,4.25,0,0,1,2.954,3.156c.126.558.39,1.719-1.851,4.4-.954,1.14-1.952,2.28-2.917,3.383l-.02.021c-.707.807-1.438,1.644-2.162,2.49L202.91,31.8h14.2V29.176h-8.5l.841-.984c.708-.828,1.437-1.662,2.142-2.468l.02-.023c.972-1.112,1.979-2.262,2.953-3.426a11.369,11.369,0,0,0,2.289-3.837,5.27,5.27,0,0,0,.11-2.827,6.905,6.905,0,0,0-4.825-5.111,6.821,6.821,0,0,0-5.545.88" transform="translate(-202.91 -10.26)" fill="none"/>
    </clipPath>
    <linearGradient id="linear-gradient-2" x1="6.782" y1="6.697" x2="6.792" y2="6.697" xlink:href="#linear-gradient"/>
    <clipPath id="clip-path-24">
      <path id="Path_67" data-name="Path 67" d="M334.726,113.61a6.281,6.281,0,0,1,.164-2.115,35.915,35.915,0,0,0-7.1-1.895s1.584,4.751,4.591,6.9a7.133,7.133,0,0,0,6.3.891s-3.583-.68-3.95-3.784" transform="translate(-327.79 -109.6)" fill="none"/>
    </clipPath>
    <linearGradient id="linear-gradient-3" x1="7.487" y1="14.534" x2="7.5" y2="14.534" xlink:href="#linear-gradient"/>
    <clipPath id="clip-path-25">
      <path id="Path_68" data-name="Path 68" d="M383.291,96.525c.246-.069,3.471-1.028,3.471-4.027s-3.219-6.933-3.471-7.238c-.253.306-3.471,4.242-3.471,7.238s3.226,3.958,3.471,4.027" transform="translate(-379.82 -85.26)" fill="none"/>
    </clipPath>
    <linearGradient id="linear-gradient-4" x1="10.67" y1="11.992" x2="10.69" y2="11.992" xlink:href="#linear-gradient"/>
    <clipPath id="clip-path-26">
      <path id="Path_69" data-name="Path 69" d="M363.687,93.363a31.3,31.3,0,0,0-3.064-1.863,17.757,17.757,0,0,0-.323,3.174,26.121,26.121,0,0,1,2.572.86,14.444,14.444,0,0,1,.815-2.169" transform="translate(-360.3 -91.5)" fill="none"/>
    </clipPath>
    <linearGradient id="linear-gradient-5" x1="22.694" y1="33.28" x2="22.736" y2="33.28" xlink:href="#linear-gradient"/>
    <clipPath id="clip-path-27">
      <path id="Path_70" data-name="Path 70" d="M313.029,139.475a10.243,10.243,0,0,1-2.169-1.806,6.39,6.39,0,0,0-5.535-1.675l-.016,0c1.3.9,8.1,8.275,14.112,3.96l-.016-.007a7.184,7.184,0,0,1-6.376-.474" transform="translate(-305.31 -135.913)" fill="none"/>
    </clipPath>
    <linearGradient id="linear-gradient-6" x1="6.003" y1="14.893" x2="6.013" y2="14.893" xlink:href="#linear-gradient"/>
    <clipPath id="clip-path-28">
      <path id="Path_71" data-name="Path 71" d="M410.554,116.5c3.006-2.152,4.591-6.9,4.591-6.9a35.889,35.889,0,0,0-7.1,1.895,6.284,6.284,0,0,1,.164,2.115c-.368,3.106-3.95,3.784-3.95,3.784a7.133,7.133,0,0,0,6.3-.891" transform="translate(-404.26 -109.6)" fill="none"/>
    </clipPath>
    <linearGradient id="linear-gradient-7" x1="6.484" y1="14.534" x2="6.497" y2="14.534" xlink:href="#linear-gradient"/>
    <clipPath id="clip-path-29">
      <path id="Path_72" data-name="Path 72" d="M427.637,94.674a17.782,17.782,0,0,0-.323-3.174,31.648,31.648,0,0,0-3.064,1.863,14.458,14.458,0,0,1,.815,2.169,26.366,26.366,0,0,1,2.572-.86" transform="translate(-424.25 -91.5)" fill="none"/>
    </clipPath>
    <linearGradient id="linear-gradient-8" x1="19.997" y1="33.28" x2="20.04" y2="33.28" xlink:href="#linear-gradient"/>
    <clipPath id="clip-path-30">
      <path id="Path_73" data-name="Path 73" d="M418.245,135.994a6.39,6.39,0,0,0-5.535,1.675,10.311,10.311,0,0,1-2.169,1.806,7.179,7.179,0,0,1-6.376.474l-.016.007c6.016,4.315,12.814-3.063,14.112-3.96l-.016,0" transform="translate(-404.15 -135.913)" fill="none"/>
    </clipPath>
    <linearGradient id="linear-gradient-9" x1="5.003" y1="14.893" x2="5.013" y2="14.893" xlink:href="#linear-gradient"/>
  </defs>
  <g id="Group_38" data-name="Group 38" transform="translate(0)">
    <g id="Group_5" data-name="Group 5" transform="translate(58.983 13.943)" clip-path="url(#clip-path)">
      <rect id="Rectangle_4" data-name="Rectangle 4" width="0.32" height="0.601" transform="translate(-0.029 0.262) rotate(-85.2)" fill="url(#radial-gradient)"/>
    </g>
    <g id="Group_6" data-name="Group 6" transform="translate(59.163 13.658)" clip-path="url(#clip-path-2)">
      <rect id="Rectangle_5" data-name="Rectangle 5" width="0.408" height="0.658" transform="translate(-0.081 0.281) rotate(-85.2)" fill="url(#radial-gradient-2)"/>
    </g>
    <g id="Group_7" data-name="Group 7" transform="translate(58.535 13.822)" clip-path="url(#clip-path-3)">
      <rect id="Rectangle_6" data-name="Rectangle 6" width="0.518" height="0.688" transform="translate(-0.112 0.452) rotate(-85.2)" fill="url(#radial-gradient-3)"/>
    </g>
    <g id="Group_8" data-name="Group 8" transform="translate(58.983 12.043)" clip-path="url(#clip-path-4)">
      <rect id="Rectangle_7" data-name="Rectangle 7" width="1.549" height="1.177" transform="translate(-0.214 1.289) rotate(-85.2)" fill="url(#radial-gradient-4)"/>
    </g>
    <g id="Group_9" data-name="Group 9" transform="translate(58.731 7.767)" clip-path="url(#clip-path-5)">
      <rect id="Rectangle_8" data-name="Rectangle 8" width="1.742" height="1.251" transform="translate(-0.274 1.621) rotate(-85.2)" fill="url(#radial-gradient-5)"/>
    </g>
    <g id="Group_10" data-name="Group 10" transform="translate(44.092 9.821)" clip-path="url(#clip-path-6)">
      <rect id="Rectangle_9" data-name="Rectangle 9" width="0.408" height="0.545" transform="translate(-0.026 0.357) rotate(-85.2)" fill="url(#radial-gradient-6)"/>
    </g>
    <g id="Group_11" data-name="Group 11" transform="translate(48.729 20.192)" clip-path="url(#clip-path-7)">
      <rect id="Rectangle_10" data-name="Rectangle 10" width="0.213" height="0.416" transform="translate(-0.105 0.158) rotate(-85.2)" fill="url(#radial-gradient-7)"/>
    </g>
    <g id="Group_12" data-name="Group 12" transform="translate(49.9 11.206)" clip-path="url(#clip-path-8)">
      <rect id="Rectangle_11" data-name="Rectangle 11" width="1.244" height="0.871" transform="translate(-0.095 0.979) rotate(-85.2)" fill="url(#radial-gradient-8)"/>
    </g>
    <g id="Group_13" data-name="Group 13" transform="translate(42.775 14.924)" clip-path="url(#clip-path-9)">
      <rect id="Rectangle_12" data-name="Rectangle 12" width="2.31" height="1.564" transform="translate(-0.314 2.149) rotate(-85.2)" fill="url(#radial-gradient-9)"/>
    </g>
    <g id="Group_14" data-name="Group 14" transform="translate(54.175 12.861)" clip-path="url(#clip-path-10)">
      <rect id="Rectangle_13" data-name="Rectangle 13" width="0.381" height="0.38" transform="translate(-0.089 0.21) rotate(-85.2)" fill="url(#radial-gradient-10)"/>
    </g>
    <g id="Group_15" data-name="Group 15" transform="translate(56.588 13.279)" clip-path="url(#clip-path-11)">
      <rect id="Rectangle_14" data-name="Rectangle 14" width="0.36" height="0.46" transform="translate(-0.033 0.325) rotate(-85.2)" fill="url(#radial-gradient-11)"/>
    </g>
    <g id="Group_16" data-name="Group 16" transform="translate(58.359 6.198)" clip-path="url(#clip-path-12)">
      <rect id="Rectangle_15" data-name="Rectangle 15" width="0.998" height="0.498" transform="translate(-0.075 0.857) rotate(-85.2)" fill="url(#radial-gradient-12)"/>
    </g>
    <g id="Group_17" data-name="Group 17" transform="translate(56.839 10.709)" clip-path="url(#clip-path-13)">
      <rect id="Rectangle_16" data-name="Rectangle 16" width="3.15" height="2.565" transform="translate(-0.302 2.725) rotate(-85.2)" fill="url(#radial-gradient-13)"/>
    </g>
    <g id="Group_18" data-name="Group 18" transform="translate(38.452)" clip-path="url(#clip-path-14)">
      <rect id="Rectangle_17" data-name="Rectangle 17" width="23.288" height="23.288" transform="matrix(0.999, -0.046, 0.046, 0.999, -1.019, 0.048)" fill="url(#radial-gradient-14)"/>
    </g>
    <g id="Group_19" data-name="Group 19" transform="translate(53.091 10.111)" clip-path="url(#clip-path-15)">
      <rect id="Rectangle_18" data-name="Rectangle 18" width="0.059" height="0.047" transform="translate(-0.005 0.057) rotate(-85.2)" fill="url(#radial-gradient-15)"/>
    </g>
    <g id="Group_20" data-name="Group 20" transform="translate(52.96 10.248)" clip-path="url(#clip-path-16)">
      <rect id="Rectangle_19" data-name="Rectangle 19" width="0.51" height="0.17" transform="translate(-0.038 0.483) rotate(-85.2)" fill="url(#radial-gradient-16)"/>
    </g>
    <g id="Group_21" data-name="Group 21" transform="translate(52.907 10.792)" clip-path="url(#clip-path-17)">
      <rect id="Rectangle_20" data-name="Rectangle 20" width="0.131" height="0.081" transform="translate(-0.008 0.125) rotate(-85.2)" fill="url(#radial-gradient-17)"/>
    </g>
    <g id="Group_22" data-name="Group 22" transform="translate(52.997 11.101)" clip-path="url(#clip-path-18)">
      <rect id="Rectangle_21" data-name="Rectangle 21" width="0.061" height="0.051" transform="translate(-0.004 0.058) rotate(-85.2)" fill="url(#radial-gradient-18)"/>
    </g>
    <g id="Group_23" data-name="Group 23" transform="translate(53.054 11.275)" clip-path="url(#clip-path-19)">
      <rect id="Rectangle_22" data-name="Rectangle 22" width="0.176" height="0.136" transform="translate(-0.013 0.169) rotate(-85.2)" fill="url(#radial-gradient-19)"/>
    </g>
    <g id="Group_24" data-name="Group 24" transform="translate(53.171 11.509)" clip-path="url(#clip-path-20)">
      <rect id="Rectangle_23" data-name="Rectangle 23" width="0.161" height="0.134" transform="translate(-0.012 0.154) rotate(-85.2)" fill="url(#radial-gradient-20)"/>
    </g>
    <g id="Group_25" data-name="Group 25" transform="translate(48.299 11.309)" clip-path="url(#clip-path-21)">
      <rect id="Rectangle_24" data-name="Rectangle 24" width="0.173" height="0.091" transform="translate(-0.017 0.165) rotate(-85.21)" fill="url(#radial-gradient-21)"/>
    </g>
    <g id="Group_27" data-name="Group 27" transform="translate(13.251 33.587)">
      <path id="Path_49" data-name="Path 49" d="M256.33,254.241v-.882h-1.394c0,.231,0,.454,0,.678s-.077.3-.3.3a3.9,3.9,0,0,0-.671.006.832.832,0,0,0-.705,1.081.5.5,0,0,0,.356.386.971.971,0,0,0,1.114-.29,2.235,2.235,0,0,0,.18-.431c.4.116.684.625.193,1.168.256.327.533.631.75.975a.68.68,0,0,1-.25,1.021,1.422,1.422,0,0,1-.508.147,1.7,1.7,0,0,1-1.308-.423c-.438-.374-.847-.783-1.267-1.177a.274.274,0,0,1-.039-.063l.036-.056a1.337,1.337,0,0,1,.207.131,11.208,11.208,0,0,0,.864.787,1.324,1.324,0,0,0,1.3.2.821.821,0,0,0,.568-.8.484.484,0,0,0-.57-.453,1.249,1.249,0,0,1,.178.326.3.3,0,0,1-.188.358.622.622,0,0,1-.446,0,3.132,3.132,0,0,1-.615-.528.35.35,0,0,1,.016-.485c-.274-.267-.55-.523-.81-.794a.981.981,0,0,1-.231-1.067.877.877,0,0,1,1.092-.524c.02,0,.039.011.057.016.444.087.555-.017.5-.484h-3.878v.44c.1-.02.187-.044.277-.057a1.125,1.125,0,0,1,1.025.358,4.614,4.614,0,0,1,.4.466.561.561,0,0,1-.071.791,4.008,4.008,0,0,1-.607.4c-.181.111-.373.207-.451.454-.131-.124-.261-.236-.376-.358a.248.248,0,0,1,.023-.4,3.53,3.53,0,0,1,.464-.3,1.111,1.111,0,0,0,.6-.627c.061-.208.021-.264-.2-.273a1.654,1.654,0,0,0-1.02.331.232.232,0,0,0-.083.163c-.006.484-.009.968,0,1.452a.419.419,0,0,0,.114.211,7.819,7.819,0,0,1,.6.715.782.782,0,0,1-.678,1.271,1.853,1.853,0,0,1-1.2-.327,9.072,9.072,0,0,1-1.442-1.327c.011-.02.021-.04.033-.061a.9.9,0,0,1,.193.106c.283.258.541.551.845.78a1.358,1.358,0,0,0,1.332.227.815.815,0,0,0,.574-.8.482.482,0,0,0-.368-.446c0,.1,0,.188,0,.277a.417.417,0,0,1-.266.425.444.444,0,0,1-.494-.093c-.12-.114-.25-.217-.377-.323-.159-.131-.284-.288-.193-.5a.57.57,0,0,1,.507-.334c.09-.007.183,0,.284,0v-.533c-.176.084-.336.174-.506.241a.719.719,0,0,1-.671-.027,4.849,4.849,0,0,1-.751-.575.77.77,0,0,1-.147-.871.837.837,0,0,1,.753-.5A1.441,1.441,0,0,1,250,254.2v-.848h-.2c-.624,0-1.248,0-1.872,0a.426.426,0,0,1-.364-.15,2.809,2.809,0,0,1-.317-.374h.228q10.573,0,21.144-.009a.451.451,0,0,1,.454.233,3.329,3.329,0,0,0,.207.287h-1v3.4c-.2-.144-.357-.253-.5-.38-.039-.033-.036-.123-.037-.186,0-.384,0-.77,0-1.154,0-.071-.006-.141-.01-.22h-.81c-.053.267-.094.52-.157.768a1.265,1.265,0,0,1-.15.321.167.167,0,0,1-.284.047,7.846,7.846,0,0,1-.86-.927c-.257-.367-.074-.665.374-.707.164-.016.327-.034.5-.053v-.9h-3.076v.428c.126-.019.243-.039.36-.051a.944.944,0,0,1,.763.213,4.368,4.368,0,0,1,.56.588.584.584,0,0,1-.08.854,2.474,2.474,0,0,1-.5.323c-.351.19-.423.247-.534.5-.114-.106-.23-.2-.334-.311-.18-.187-.178-.318.03-.481.156-.121.34-.2.5-.314a1.848,1.848,0,0,0,.354-.284.945.945,0,0,0,.174-.328c.043-.131.007-.223-.167-.231a1.623,1.623,0,0,0-1.058.333.3.3,0,0,0-.084.22c-.007.544,0,1.088,0,1.632v.2a.941.941,0,0,1-.508-1.181c-.217.1-.386.186-.558.258a.761.761,0,0,1-.617-.016,2.067,2.067,0,0,1-.835-.657.818.818,0,0,1,.584-1.3,1.473,1.473,0,0,1,1.375.423v-.8h-2.5v3.3c-.563-.266-.574-.733-.515-1.244-.17.08-.3.148-.438.206a.858.858,0,0,1-.9-.106,8.528,8.528,0,0,1-.645-.64.276.276,0,0,0-.15-.091c-.2-.01-.41,0-.611,0-.056.271-.091.533-.164.784-.139.477-.277.523-.64.2a5.376,5.376,0,0,1-.611-.675.755.755,0,0,1-.129-.367c-.026-.246.094-.377.35-.411.19-.026.381-.039.6-.061m.567.02c.118,0,.23-.009.34,0,.216.02.4,0,.476-.251a.383.383,0,0,1,.16-.171,1.2,1.2,0,0,1,.945-.2,6.111,6.111,0,0,1,.821.3v-.593H256.9Zm-6.937.071a1.362,1.362,0,0,0-1.178.057.73.73,0,0,0-.388.651c0,.21.047.266.256.237A1.751,1.751,0,0,0,249.96,254.341Zm12.672-.021a1.342,1.342,0,0,0-1.071.023.762.762,0,0,0-.463.781.194.194,0,0,0,.121.13,1.538,1.538,0,0,0,1.411-.934Zm4.265-.97v.924h.824v-.924Zm-7.878,1.661.021-.1c-.129-.113-.263-.22-.384-.34-.246-.241-.353-.224-.5.1a.813.813,0,0,0-.064.266c-.016.213.063.3.271.264a6.238,6.238,0,0,0,.651-.187Zm-.41-.757.581.575a1.452,1.452,0,0,0,.466-.584A1.337,1.337,0,0,0,258.609,254.254Zm-2.265.585c-.341-.029-.484.121-.45.421.006.053.04.146.064.147a.213.213,0,0,0,.169-.067C256.21,255.183,256.27,255.016,256.345,254.839Zm9.973.007-.053-.064a1.053,1.053,0,0,0-.316.211.356.356,0,0,0,.023.44c.3-.1.288-.363.346-.587Z" transform="translate(-233.297 -250.306)" fill="#fff"/>
      <path id="Path_50" data-name="Path 50" d="M190.769,238.247h-.89v3.331a.9.9,0,0,1-.534-1.165c-.1.049-.144.067-.186.091a1.1,1.1,0,0,1-1.011.083,2.146,2.146,0,0,1-.871-.644.749.749,0,0,1,.3-1.177,1.569,1.569,0,0,1,1.6.171l.081.057s.011,0,.033,0v-.73h-2.542v3.476c-.2-.173-.371-.306-.524-.457a.405.405,0,0,1-.06-.217,1.477,1.477,0,0,1,0-.21,2.683,2.683,0,0,1-.57.064,1.377,1.377,0,0,1-.6-.171,3.087,3.087,0,0,1-.657-.57.579.579,0,0,1,.153-.98c.071-.047.15-.084.256-.144l-.3-.281a.794.794,0,0,1-.25-.684.462.462,0,0,1,.7-.354,4.254,4.254,0,0,1,.484.41.216.216,0,0,1,.009.347,1.3,1.3,0,0,1-.353.246c-.07.03-.176-.021-.277-.039a1.893,1.893,0,0,0,.074.261.146.146,0,0,0,.113.074c.443-.044.69.237.965.565a.877.877,0,0,0-.965.22c-.031.034-.076.067-.087.107-.04.143-.069.288-.1.433a1.832,1.832,0,0,0,.4.06A1.09,1.09,0,0,0,186,240a.873.873,0,0,0,.18-.43c.024-.428.009-.86.009-1.329-.467.13-.694-.216-1.007-.5h.988c.006-.017.011-.034.019-.051a2.843,2.843,0,0,0-1.154-.84,1.592,1.592,0,0,0-1.394.284l-.54-.611a1.643,1.643,0,0,1,1.766-.151,1.757,1.757,0,0,0-2.275-.213l-.541-.594a1.538,1.538,0,0,1,1.7-.17,5.2,5.2,0,0,1,1.081.76c.521.461,1,.971,1.5,1.449a.463.463,0,0,0,.291.113c1.194.011,2.389.013,3.583.023a.367.367,0,0,1,.221.094c.127.113.238.244.357.368-.006.016-.013.031-.019.047m-1.468,1.015a1.369,1.369,0,0,0-1.381.166.705.705,0,0,0-.241.6.228.228,0,0,0,.146.16A1.694,1.694,0,0,0,189.3,239.262Z" transform="translate(-177.416 -235.211)" fill="#fff"/>
      <path id="Path_51" data-name="Path 51" d="M173.291,257.13a1.153,1.153,0,0,1,.216.149,1.8,1.8,0,0,0,1.369.664,1.031,1.031,0,0,0,.724-.281.592.592,0,0,0,.2-.627.6.6,0,0,0-.563-.4c.026.04.036.063.051.081.2.236.211.35.07.523a.464.464,0,0,1-.614.079,4.187,4.187,0,0,1-.6-.678.329.329,0,0,1,.231-.5c.26-.073.264-.226.246-.424,0-.033-.007-.066-.013-.123a2.253,2.253,0,0,1-1.795-.32c.093.13.183.261.277.391.2.274.4.544.593.823a.736.736,0,0,1,.061.217l-.07.03c-.074-.089-.156-.173-.224-.266q-.563-.771-1.121-1.545a.387.387,0,0,1-.026-.526c.124-.144.277-.161.508-.06.03.013.06.039.09.039.238,0,.708-.468.734-.761a1.643,1.643,0,0,0-.244.026c-.121.031-.24.073-.358.116a.538.538,0,0,1-.617-.146c-.1-.1-.191-.213-.276-.306a4.093,4.093,0,0,0,.537-.137.714.714,0,0,1,.813.12c.211.191.423.383.621.587a.328.328,0,0,1,.007.513,5.665,5.665,0,0,1-.678.505,2.072,2.072,0,0,1-.27.137,1.3,1.3,0,0,0,1.385-.29.247.247,0,0,0,.069-.136c.007-.326.006-.65.007-.975v-.188a2.361,2.361,0,0,1-.668-.091,2.426,2.426,0,0,1-.52-.448h2.168c-.034.164-.069.327-.106.508h-.3c0,.07-.011.127-.011.184,0,.81,0,1.618-.011,2.428a.29.29,0,0,0,.131.263,2.712,2.712,0,0,1,.894,1.218.745.745,0,0,1-.7,1.045,1.7,1.7,0,0,1-1.252-.351c-.364-.3-.685-.653-1.027-.982l.069-.084" transform="translate(-168.921 -250.374)" fill="#fff"/>
      <path id="Path_52" data-name="Path 52" d="M152.52,256.662a.928.928,0,0,1-.541-1.141,4.482,4.482,0,0,1-.771.24.919.919,0,0,1-.584-.107,3.074,3.074,0,0,1-.728-.664.75.75,0,0,1,.4-1.172,1.593,1.593,0,0,1,1.591.26.427.427,0,0,0,.064.033v-.774h-.812a3.2,3.2,0,0,0-.5,0,.922.922,0,0,1-1.041-.517c.053,0,.114-.01.174-.01.65,0,1.3.006,1.951,0a.681.681,0,0,1,.441.17.9.9,0,0,1,.356.818c-.009.888,0,1.778,0,2.666v.2m-.547-2.328a1.551,1.551,0,0,0-1.215.04.8.8,0,0,0-.453.635c-.031.208.034.29.243.271a1.813,1.813,0,0,0,1.425-.945Z" transform="translate(-149.6 -250.296)" fill="#fff"/>
      <path id="Path_53" data-name="Path 53" d="M390.48,280.97a.586.586,0,0,1,.631-.036,3.452,3.452,0,0,1,1.01.958c-.35-.19-.644-.541-1.127-.321l-.513-.6" transform="translate(-356.083 -274.34)" fill="#fff"/>
    </g>
    <g id="Group_28" data-name="Group 28" transform="translate(14.768 28.105)">
      <path id="Path_54" data-name="Path 54" d="M331.89,199.53c.04,0,.1,0,.17.007.183.01.306.014.366.014.08,0,.227-.006.44-.016l.123-.006v.146a.428.428,0,0,0-.261.051c-.037.034-.054.12-.054.257v1.731c0,.141.018.228.054.26a.448.448,0,0,0,.263.049v.144l-.348-.014c-.079,0-.141,0-.187,0s-.12,0-.2,0l-.36.014v-.144a.425.425,0,0,0,.263-.051.4.4,0,0,0,.053-.257v-1.731c0-.139-.017-.224-.054-.258a.436.436,0,0,0-.261-.05v-.146" transform="translate(-307.376 -199.143)" fill="#fff"/>
      <path id="Path_55" data-name="Path 55" d="M341.55,199.521l.241.014c.066,0,.126,0,.177,0s.094,0,.156,0,.141-.007.241-.014l1.429,1.928v-1.4a.523.523,0,0,0-.063-.324.44.44,0,0,0-.287-.061v-.146l.251.014c.07,0,.134,0,.19,0,.034,0,.08,0,.134,0l.244-.014v.146a.409.409,0,0,0-.254.061.54.54,0,0,0-.057.32v1.078c0,.23,0,.423,0,.581s-.006.316-.01.471l-.19-.021-1.7-2.292v1.764a.537.537,0,0,0,.061.33.481.481,0,0,0,.288.056v.144c-.111-.007-.2-.011-.266-.014s-.123,0-.173,0c-.029,0-.069,0-.121,0l-.274.014v-.144a.406.406,0,0,0,.27-.061.531.531,0,0,0,.06-.324v-1.654a.382.382,0,0,0-.056-.257.408.408,0,0,0-.253-.051h-.034v-.146" transform="translate(-315.657 -199.134)" fill="#fff"/>
      <path id="Path_56" data-name="Path 56" d="M362.58,199.53c.053,0,.11.006.171.009s.154,0,.277,0c.069,0,.179,0,.331-.006s.273-.006.358-.006a1.484,1.484,0,0,1,1.048.351,1.263,1.263,0,0,1,.378.974,1.287,1.287,0,0,1-.358.971,1.426,1.426,0,0,1-1.022.341c-.074,0-.188,0-.344-.007s-.273-.007-.353-.007-.167,0-.247,0-.16.006-.239.011v-.144a.383.383,0,0,0,.251-.053.4.4,0,0,0,.053-.256v-1.731c0-.136-.017-.221-.053-.254a.423.423,0,0,0-.251-.054v-.146m.77.146v2.345h.259a1.993,1.993,0,0,0,.366-.026.684.684,0,0,0,.226-.084.753.753,0,0,0,.32-.393,1.843,1.843,0,0,0,.107-.677,1.335,1.335,0,0,0-.243-.9,1.059,1.059,0,0,0-.818-.271h-.213Z" transform="translate(-333.684 -199.143)" fill="#fff"/>
      <path id="Path_57" data-name="Path 57" d="M382.49,199.53c.04,0,.1,0,.17.007.183.01.3.014.366.014.08,0,.227-.006.44-.016l.121-.006v.146a.428.428,0,0,0-.261.051c-.037.034-.054.12-.054.257v1.731c0,.141.019.228.054.26a.448.448,0,0,0,.263.049v.144l-.348-.014c-.078,0-.141,0-.187,0s-.12,0-.2,0l-.36.014v-.144a.425.425,0,0,0,.263-.051.4.4,0,0,0,.053-.257v-1.731c0-.139-.017-.224-.054-.258a.436.436,0,0,0-.261-.05v-.146" transform="translate(-350.751 -199.143)" fill="#fff"/>
      <path id="Path_58" data-name="Path 58" d="M393.239,199.291h.2l.848,2.333a.3.3,0,0,0,.1.156.334.334,0,0,0,.183.037v.144l-.334-.014q-.105,0-.167,0c-.051,0-.118,0-.2,0l-.348.014v-.144a.433.433,0,0,0,.194-.037.113.113,0,0,0,.059-.107.245.245,0,0,0,0-.047.131.131,0,0,0-.009-.037l-.2-.58h-.782l-.15.426-.009.027a.794.794,0,0,0-.054.211.119.119,0,0,0,.041.1.389.389,0,0,0,.171.039v.144c-.064,0-.127-.009-.186-.01s-.113,0-.163,0-.091,0-.148,0l-.184.01v-.144a.331.331,0,0,0,.177-.037.349.349,0,0,0,.1-.169l.86-2.32m-.063.593-.351.981h.684l-.331-.981Z" transform="translate(-358.989 -198.937)" fill="#fff"/>
      <path id="Path_59" data-name="Path 59" d="M178.278,201.548l-.006.006.007-.011,0,0-.23-.207-.014-.014-.124-.114-.006,0,.007-.011c-.057-.006-.027-.066-.123-.059l-.016.1a1.7,1.7,0,0,1-.151.588c-.024.04-.043.083-.066.121a1.2,1.2,0,0,1-.086.123,1.368,1.368,0,0,1-.241.224c-.026.013-.041.03-.061.041s-.048.03-.074.043c-.053.027-.107.047-.158.074a1.02,1.02,0,0,1-.144.053c-.039.011-.094.021-.14.036a2.068,2.068,0,0,1-.3.053c-.074,0-.1.014-.164.014-.094,0-.1,0-.151.006h-.163l-.064,0H175.8a2.116,2.116,0,0,1-.253-.014c-.061-.007-.176-.023-.224-.024s-.166-.021-.244-.034a2.047,2.047,0,0,1-.213-.04c-.03-.01-.214-.044-.244-.05-.071-.011-.158-.039-.228-.051s-.151-.04-.233-.059c-.027-.006-.21-.051-.236-.063a1.987,1.987,0,0,0-.227-.067c-.033-.01-.067-.02-.11-.037-.006,0-.089-.027-.1-.03-.064-.01-.151-.056-.217-.071s-.133-.051-.213-.07-.181-.073-.244-.089-.151-.057-.216-.078c-.158-.051-.311-.119-.467-.178-.267-.1-.617-.248-.87-.363-.277-.124-.587-.257-.862-.394-.056-.027-.131-.059-.213-.1s-.137-.063-.217-.1a2.311,2.311,0,0,0-.233-.114c-.023-.006-.153-.077-.188-.093-.02-.009-.069-.036-.1-.054s-.063-.03-.1-.051-.073-.039-.111-.061c-.019-.011-.074-.039-.1-.057s-.411-.261-.43-.263l.167-.113,0-.009,0,.006.114-.091,0-.007c.027,0,.11-.09.129-.11s.114-.1.1-.123h.017c-.007-.017.046-.069.063-.089a1.014,1.014,0,0,0,.061-.1,1.282,1.282,0,0,0,.1-.181,1.193,1.193,0,0,0,.11-.408l.01-.129v-.046l-.007-.064,0-.006a1.536,1.536,0,0,0-.091-.414,1.4,1.4,0,0,0-.093-.2c-.017-.029-.09-.153-.124-.156.007-.017-.02-.044-.047-.047l.006-.011-.234-.2-.014-.014-.1-.094h2.535v.306l0,.1v.023l0,.093-.009.36v.023l-.443-.03h-.057l-.076,0h-.093l-.087,0a1.05,1.05,0,0,0-.617.187.6.6,0,0,0-.2.276.926.926,0,0,0-.05.313v.046c.007.079.006.119.016.2.007.064.039.144.047.2a1.705,1.705,0,0,0,.141.351,1.586,1.586,0,0,0,.207.314c.03.034.236.276.284.28l-.006.011,0,0,.23.207.006,0-.007.011,0,0,.206.184.006-.006-.007.011c.023,0,.08.057.109.073s.074.049.111.069.223.117.223.04v-.006a.22.22,0,0,0-.093-.087l0-.006-.233-.21-.006.006.007-.011a1.291,1.291,0,0,1-.161-.136.886.886,0,0,0-.193-.086.308.308,0,0,0-.039-.066.187.187,0,0,1-.03-.049c-.024-.043-.053-.077-.069-.114-.029-.066-.074-.14-.1-.223a1.49,1.49,0,0,1-.1-.543c0-.591.43-.71.9-.721h.094l.07,0,0,.007-.01.825v.488c0,.049-.027.116.026.167a1.119,1.119,0,0,0,.173.147l-.006.011.006,0,.228.207.006,0-.007.011c.053.006.076.113.129.036l0-1v-.109l.009-.407v-.34h.07a.029.029,0,0,0,.029-.03c0-.021,0-.011-.006-.034-.034,0-.061-.051-.087-.07l0-.187h0v-1.091h1.031a.051.051,0,0,0,.041-.081l-.271-.37a.14.14,0,0,0-.113-.057h-2.672c-1.3,0-4.018.007-4.818.007H163.92v.011h-.011v.029a1.1,1.1,0,0,0,.216.2l-.006.011.006,0,.23.208.006,0-.007.011.064.047h.954l0,.6,0,.366h-.017c-.019,0-.1-.02-.134-.023-.049,0-.089-.009-.14-.017a2.287,2.287,0,0,0-.266-.019h-.081c-.016-.071-.04-.144-.073-.247-.017-.053-.029-.074-.047-.121s-.033-.083-.047-.111c-.033-.06-.081-.137-.127-.213a.463.463,0,0,0-.077-.1.537.537,0,0,1-.037-.044c-.014-.019-.039-.021-.031-.04l0,.006-.321-.29-.006.006.007-.011c-.034,0-.171-.171-.216-.174l.006-.011a.634.634,0,0,1-.1-.061.632.632,0,0,0-.1-.047.728.728,0,0,0-.194-.044h-.093l-.139.024c-.027.016-.114.034-.154.053a.92.92,0,0,0-.156.09.357.357,0,0,0-.144.308l-.467-.416-.044,0h-.023a4.2,4.2,0,0,1-.437,0H161.4c-.114,0-.184,0-.324,0-.181,0-.448-.011-.6,0h-.208c-.03,0-.013,0-.041.013v.029a.83.83,0,0,0,.169.151l-.007.011,0,0,.23.207.026.027,0,0c.051,0,.037.07.134.07h.2c.121,0,.3-.007.4,0h.21l.023,0,.721,0h.117a1.476,1.476,0,0,1,.253,0c.006.009.031.067.043.09l.044.079a1.955,1.955,0,0,0,.3.284l-.007.011.006,0,.228.207.006,0-.006.011a.863.863,0,0,1,.139.111.941.941,0,0,0,.15.106.915.915,0,0,0,.34.126c0,.006-.231.076-.246.079a1.635,1.635,0,0,0-.263.116.981.981,0,0,0-.4.374.661.661,0,0,0,.04.483,1.276,1.276,0,0,0,.129.236c.021.034.147.193.187.2l-.007.011.006,0,.23.207.014.014.217.2.006,0-.006.011c.026,0,.07.051.1.067s.07.036.109.054a.488.488,0,0,0,.2.033.5.5,0,0,0,.373-.24.99.99,0,0,0,.159-.378,2.673,2.673,0,0,0,.06-.426c0-.106.007-.324,0-.418l-.011-.163h.017l.186-.013.059,0h.2l.064.006c.021,0,0,0,.019-.006l.006,1.024v.127l.21.191,0,0-.007.011.006-.006.228.208,0,0-.006.011c.034,0,.047.046.07.046h.029c.007-.019.011-.013.011-.034l0-.808,0-.685c.027.013.157.044.2.056s.188.077.217.079v.166l.006.064v.21l.011.314.011.2c0,.04,0,.074.01.128s0,.039.026.067.036.046.063.048l-.007.011.006,0,.23.207.006,0-.007.011c.041,0,.169.163.2.163h.029v-.011h.011v-.053l-.006-.064-.02-.378v-.064l0-.14-.006-.029v-.023c0-.047,0-.147,0-.164v-.547a2.592,2.592,0,0,1,0-.288v-.047l.006-.07v-.227l0-.123v-.047l0-.127V198.2l0-.064v-.047l0-.186v-.448l-.013.006-.047-.046h.059l.017,0,.755,0a.543.543,0,0,0-.064.238v.064a.907.907,0,0,0,.027.177c.016.067.05.123.069.189a.761.761,0,0,0,.1.166,1.259,1.259,0,0,0,.158.133l-.007.011.006,0,.23.207,0,0-.006.011c.033,0,.051.037.071.057.04.039.05.006.074-.01a1.133,1.133,0,0,1-.169-.477l-.006-.029a.666.666,0,0,1,.043-.236c.023-.05.1-.184.154-.188l-.006-.011s.136-.067.156-.074a.5.5,0,0,1,.147-.031h.087c.036,0,.109,0,.131.05a.7.7,0,0,1,.051.141,2.083,2.083,0,0,1,.061.3,1.162,1.162,0,0,1-.01.333q-.017.086-.039.163c-.014.051-.031.083-.054.147a1.666,1.666,0,0,1-.147.257,1.547,1.547,0,0,1-.214.241,1.74,1.74,0,0,1-.248.21c-.046.03-.093.064-.131.084s-.044.027-.074.043a.775.775,0,0,0-.077.04c-.014-.02-.3-.16-.354-.187a1.408,1.408,0,0,0-.378-.138h-.023a.093.093,0,0,0-.093.057c-.01.017-.029.029-.04.046s-.017.03-.029.047a.422.422,0,0,0-.083.208v.041c0,.03.046.113.087.117l-.007.011,0,0,.23.207.006,0-.006.011a1.654,1.654,0,0,1,.208.181.411.411,0,0,0,.24.073h.023l.053-.006a2.224,2.224,0,0,0,.641-.154l.725.428-.006.011c.019,0,.381.223.414.248a1.928,1.928,0,0,0,.213.114c.034.011.168.081.2.1.131.073.276.138.427.213.133.066.27.123.423.2s.3.13.445.206.288.121.411.183c.147.074.321.126.45.19s.286.107.443.18c.077.036.141.056.221.087.06.024.16.051.217.078s.166.06.226.084.17.054.228.079.163.056.24.08.156.054.234.074c.12.031.286.1.434.129.07.014.134.04.217.059.033.007.1.029.12.031a.859.859,0,0,1,.126.03,2.2,2.2,0,0,0,.25.056c.076.01.136.031.22.044.121.02.311.056.454.069.034,0,.453.04.454.041h.354l.31-.031c.049-.006.1-.017.148-.027s.113-.033.168-.041a1.683,1.683,0,0,0,.314-.121c.061-.03.1-.056.156-.089a1.579,1.579,0,0,1,.143-.1l-.007-.011.006.006.093-.093-.006-.006c.039,0,.144-.18.161-.2a1.777,1.777,0,0,0,.116-.24,1.6,1.6,0,0,0,.07-.26c.016-.063.031-.244.037-.254v-.059l-.053-.051M163.766,197.8a.254.254,0,0,1-.2.119h-.087c-.037,0-.23-.06-.233-.059,0-.031-.023-.06-.03-.11a.2.2,0,0,1,0-.086c.014-.047.064-.166.126-.171l-.006-.011a1.269,1.269,0,0,0,.123-.063c.02-.009.076-.03.1-.039a.867.867,0,0,1,.223-.039l.026.208,0,.024v.023a.457.457,0,0,1-.049.2Zm.384,1.818a.713.713,0,0,1-.184.267.357.357,0,0,1-.316.091c-.1-.176-.181-.468-.013-.635a1.139,1.139,0,0,1,.3-.234,1.622,1.622,0,0,1,.334-.137,2.019,2.019,0,0,1-.124.647Zm2.212-2.163,0,.267v.047l0,.14v.023l0,.053V198l-.006.337v.046l0,.163v.093l0,.053v.27l-.421-.376,0-.845v-.3l0-.01.011-.011c.014.007-.006,0,.016,0h.418v.029Z" transform="translate(-160.22 -196.82)" fill="#fff" fill-rule="evenodd"/>
      <path id="Path_60" data-name="Path 60" d="M258.37,205.642a.082.082,0,0,1-.057-.02.114.114,0,0,1-.028-.051.111.111,0,0,1,0-.061.114.114,0,0,1,.028-.051q.36-.293.6-.5a3.933,3.933,0,0,0,.391-.37,1.209,1.209,0,0,0,.208-.308.778.778,0,0,0,.061-.313,1.475,1.475,0,0,0-.016-.211.5.5,0,0,0-.061-.18.378.378,0,0,0-.126-.126.392.392,0,0,0-.208-.049.6.6,0,0,0-.211.033.534.534,0,0,0-.147.083.3.3,0,0,0-.084.1.217.217,0,0,0-.026.09.241.241,0,0,0,0,.041.147.147,0,0,0,.016.049.114.114,0,0,0,.044.041.179.179,0,0,0,.087.019.12.12,0,0,1,.116.051.232.232,0,0,1,.029.113.15.15,0,0,1-.059.113.238.238,0,0,1-.161.051.3.3,0,0,1-.16-.036.281.281,0,0,1-.1-.09.32.32,0,0,1-.049-.118.614.614,0,0,1-.013-.121.5.5,0,0,1,.054-.226.543.543,0,0,1,.157-.187.77.77,0,0,1,.254-.126,1.193,1.193,0,0,1,.353-.046,1.1,1.1,0,0,1,.357.054.747.747,0,0,1,.26.146.611.611,0,0,1,.157.218.672.672,0,0,1,.054.264.73.73,0,0,1-.113.385,1.662,1.662,0,0,1-.288.347,2.939,2.939,0,0,1-.383.3c-.139.091-.271.174-.4.25a.036.036,0,0,0-.026.036c0,.014.009.02.026.02h.74a.463.463,0,0,0,.116-.013.222.222,0,0,0,.087-.046.381.381,0,0,0,.077-.1,1.2,1.2,0,0,0,.08-.173.073.073,0,0,1,.036-.033.1.1,0,0,1,.051-.01.077.077,0,0,1,.046.019.047.047,0,0,1,.02.041c-.027.117-.054.228-.083.337a1.316,1.316,0,0,0-.036.363h-1.681" transform="translate(-244.277 -202.323)" fill="#fff"/>
      <path id="Path_61" data-name="Path 61" d="M276.443,204.378a1.5,1.5,0,0,1-.1.555,1.133,1.133,0,0,1-.263.406,1.093,1.093,0,0,1-.4.25,1.484,1.484,0,0,1-.511.084,1.28,1.28,0,0,1-.453-.08,1.033,1.033,0,0,1-.37-.237,1.079,1.079,0,0,1-.25-.4,1.6,1.6,0,0,1-.09-.563,1.242,1.242,0,0,1,.093-.483,1.113,1.113,0,0,1,.257-.378,1.212,1.212,0,0,1,.388-.247,1.3,1.3,0,0,1,.491-.09,1.392,1.392,0,0,1,.473.08,1.121,1.121,0,0,1,.383.228,1.037,1.037,0,0,1,.254.367,1.279,1.279,0,0,1,.093.5m-.518.059a2.136,2.136,0,0,0-.036-.383,1.168,1.168,0,0,0-.116-.334.691.691,0,0,0-.206-.237.521.521,0,0,0-.311-.09.612.612,0,0,0-.34.09.692.692,0,0,0-.224.238,1.126,1.126,0,0,0-.123.337,1.922,1.922,0,0,0-.039.388,1.848,1.848,0,0,0,.036.36,1.129,1.129,0,0,0,.118.334.75.75,0,0,0,.216.247.536.536,0,0,0,.328.1.564.564,0,0,0,.328-.093.671.671,0,0,0,.213-.241,1.2,1.2,0,0,0,.116-.337,1.985,1.985,0,0,0,.036-.378Z" transform="translate(-257.761 -202.289)" fill="#fff"/>
      <path id="Path_62" data-name="Path 62" d="M292.96,205.642a.081.081,0,0,1-.057-.02.113.113,0,0,1-.029-.051.112.112,0,0,1,0-.061.113.113,0,0,1,.029-.051q.36-.293.6-.5a3.94,3.94,0,0,0,.391-.37,1.21,1.21,0,0,0,.208-.308.779.779,0,0,0,.061-.313,1.466,1.466,0,0,0-.016-.211.5.5,0,0,0-.061-.18.378.378,0,0,0-.126-.126.392.392,0,0,0-.208-.049.6.6,0,0,0-.211.033.534.534,0,0,0-.147.083.3.3,0,0,0-.084.1.218.218,0,0,0-.026.09.241.241,0,0,0,0,.041.122.122,0,0,0,.016.049.115.115,0,0,0,.044.041.179.179,0,0,0,.087.019.12.12,0,0,1,.116.051.232.232,0,0,1,.029.113.15.15,0,0,1-.059.113.238.238,0,0,1-.161.051.3.3,0,0,1-.16-.036.281.281,0,0,1-.1-.09.322.322,0,0,1-.049-.118.625.625,0,0,1-.013-.121.5.5,0,0,1,.054-.226.542.542,0,0,1,.157-.187.77.77,0,0,1,.254-.126,1.19,1.19,0,0,1,.351-.046,1.1,1.1,0,0,1,.357.054.747.747,0,0,1,.26.146.611.611,0,0,1,.157.218.673.673,0,0,1,.054.264.73.73,0,0,1-.113.385,1.662,1.662,0,0,1-.288.347,2.94,2.94,0,0,1-.383.3c-.139.091-.271.174-.4.25a.036.036,0,0,0-.026.036c0,.014.009.02.026.02h.74a.463.463,0,0,0,.116-.013.222.222,0,0,0,.087-.046.385.385,0,0,0,.077-.1,1.2,1.2,0,0,0,.08-.173.073.073,0,0,1,.036-.033.094.094,0,0,1,.051-.01.076.076,0,0,1,.046.019.047.047,0,0,1,.02.041c-.027.117-.054.228-.083.337a1.313,1.313,0,0,0-.036.363H292.96" transform="translate(-273.928 -202.323)" fill="#fff"/>
      <path id="Path_63" data-name="Path 63" d="M308.9,204.794a.985.985,0,0,1,.35.061.945.945,0,0,1,.29.17.813.813,0,0,1,.2.254.707.707,0,0,1,.071.321.938.938,0,0,1-.121.5,1,1,0,0,1-.3.318,1.216,1.216,0,0,1-.4.17,1.8,1.8,0,0,1-.4.049,1.737,1.737,0,0,1-.254-.02,1.057,1.057,0,0,1-.234-.064.472.472,0,0,1-.17-.116.258.258,0,0,1-.067-.18.23.23,0,0,1,.067-.174.251.251,0,0,1,.3-.023.131.131,0,0,1,.061.121.127.127,0,0,1-.02.074.12.12,0,0,0-.02.074.072.072,0,0,0,.039.057.412.412,0,0,0,.1.044,1.024,1.024,0,0,0,.123.029.732.732,0,0,0,.121.01.586.586,0,0,0,.5-.216.979.979,0,0,0,.167-.611.655.655,0,0,0-.2-.5,1.058,1.058,0,0,0-.673-.211c-.044,0-.066-.023-.064-.059a.08.08,0,0,1,.049-.074,1.2,1.2,0,0,0,.527-.327.757.757,0,0,0,.167-.505,1.474,1.474,0,0,0-.016-.211.5.5,0,0,0-.061-.18.378.378,0,0,0-.126-.126.392.392,0,0,0-.208-.049.581.581,0,0,0-.213.036.571.571,0,0,0-.147.084.366.366,0,0,0-.084.1.207.207,0,0,0-.029.09.241.241,0,0,0,0,.041.151.151,0,0,0,.016.049.092.092,0,0,0,.044.039.2.2,0,0,0,.087.016.128.128,0,0,1,.119.051.22.22,0,0,1,.031.113.15.15,0,0,1-.059.113.238.238,0,0,1-.161.051.3.3,0,0,1-.16-.036.282.282,0,0,1-.1-.09.319.319,0,0,1-.049-.119.611.611,0,0,1-.013-.121.5.5,0,0,1,.054-.226.543.543,0,0,1,.157-.187.768.768,0,0,1,.254-.126,1.191,1.191,0,0,1,.351-.046,1.1,1.1,0,0,1,.357.054.748.748,0,0,1,.26.146.611.611,0,0,1,.157.219.672.672,0,0,1,.054.264.708.708,0,0,1-.067.308.964.964,0,0,1-.17.247,1.008,1.008,0,0,1-.231.18,1.163,1.163,0,0,1-.257.109l-.01.02.016.01" transform="translate(-286.778 -202.323)" fill="#fff"/>
    </g>
    <g id="Group_29" data-name="Group 29" transform="translate(0 1.147)" clip-path="url(#clip-path-22)">
      <rect id="Rectangle_26" data-name="Rectangle 26" width="22.689" height="22.58" transform="matrix(1, -0.014, 0.014, 1, -0.322, 0.005)" fill="url(#linear-gradient)"/>
    </g>
    <g id="Group_30" data-name="Group 30" transform="translate(20.864 1.465)" clip-path="url(#clip-path-23)">
      <rect id="Rectangle_27" data-name="Rectangle 27" width="14.647" height="21.749" transform="matrix(1, -0.014, 0.014, 1, -0.312, 0.009)" fill="url(#linear-gradient-2)"/>
    </g>
    <path id="Path_66" data-name="Path 66" d="M317.352,94.608a7.218,7.218,0,0,1-4.027-1.227l-.05-.033-.05.033a7.218,7.218,0,0,1-4.027,1.227c-4.034,0-7.717-3.2-9.486-4.732-.344-.3-.614-.533-.77-.641l-.8-.554.978-.15a7.484,7.484,0,0,1,1.131-.086,7.039,7.039,0,0,1,3.648.991l.124-.127c-.283-.436-.56-.908-.824-1.408A19.767,19.767,0,0,1,302,85.2l-.2-.6.627.094a39.915,39.915,0,0,1,4.085.884l.113.03,0-.117a17.871,17.871,0,0,1,.328-3.08l.106-.5.451.233a31.8,31.8,0,0,1,3.107,1.889l.337.233.05-.084a22.694,22.694,0,0,1,1.968-2.832l.3-.36.3.36a22.679,22.679,0,0,1,1.968,2.83l.05.084.337-.233a31.28,31.28,0,0,1,3.107-1.889l.451-.233.106.5a18.164,18.164,0,0,1,.328,3.08l0,.117.113-.03a39.927,39.927,0,0,1,4.085-.884l.627-.094-.2.6a19.513,19.513,0,0,1-1.194,2.7c-.264.5-.541.972-.824,1.408l.124.127a7.034,7.034,0,0,1,3.647-.991,7.449,7.449,0,0,1,1.13.086l.98.15-.8.554c-.157.109-.427.343-.771.641-1.769,1.536-5.451,4.732-9.486,4.732h0" transform="translate(-263.678 -69.425)" fill="#fff"/>
    <g id="Group_31" data-name="Group 31" transform="translate(38.696 15.65)" clip-path="url(#clip-path-24)">
      <rect id="Rectangle_28" data-name="Rectangle 28" width="10.887" height="9.056" transform="translate(-0.001 0)" fill="url(#linear-gradient-3)"/>
    </g>
    <g id="Group_32" data-name="Group 32" transform="translate(46.126 12.175)" clip-path="url(#clip-path-25)">
      <rect id="Rectangle_29" data-name="Rectangle 29" width="6.943" height="11.265" transform="translate(0 0)" fill="url(#linear-gradient-4)"/>
    </g>
    <g id="Group_33" data-name="Group 33" transform="translate(43.338 13.066)" clip-path="url(#clip-path-26)">
      <rect id="Rectangle_30" data-name="Rectangle 30" width="3.387" height="4.033" fill="url(#linear-gradient-5)"/>
    </g>
    <g id="Group_34" data-name="Group 34" transform="translate(35.486 19.408)" clip-path="url(#clip-path-27)">
      <rect id="Rectangle_31" data-name="Rectangle 31" width="14.112" height="8.602" transform="translate(-0.001 -0.243)" fill="url(#linear-gradient-6)"/>
    </g>
    <g id="Group_35" data-name="Group 35" transform="translate(49.616 15.65)" clip-path="url(#clip-path-28)">
      <rect id="Rectangle_32" data-name="Rectangle 32" width="10.887" height="9.056" transform="translate(-0.001)" fill="url(#linear-gradient-7)"/>
    </g>
    <g id="Group_36" data-name="Group 36" transform="translate(52.47 13.066)" clip-path="url(#clip-path-29)">
      <rect id="Rectangle_33" data-name="Rectangle 33" width="3.387" height="4.033" fill="url(#linear-gradient-8)"/>
    </g>
    <g id="Group_37" data-name="Group 37" transform="translate(49.6 19.408)" clip-path="url(#clip-path-30)">
      <rect id="Rectangle_34" data-name="Rectangle 34" width="14.112" height="8.602" transform="translate(-0.003 -0.243)" fill="url(#linear-gradient-9)"/>
    </g>
  </g>
</svg>
