<svg id="instagram" xmlns="http://www.w3.org/2000/svg" width="36" height="36" viewBox="0 0 36 36">
  <path id="Path_158" data-name="Path 158" d="M18,0A18,18,0,1,0,36,18,18,18,0,0,0,18,0Zm0,34.8A16.8,16.8,0,1,1,34.8,18,16.8,16.8,0,0,1,18,34.8Zm0,0" transform="translate(0)" fill="#fff"/>
  <path id="Path_159" data-name="Path 159" d="M115.289,96H99.111A3.115,3.115,0,0,0,96,99.111v16.178a3.115,3.115,0,0,0,3.111,3.111h16.178a3.115,3.115,0,0,0,3.111-3.111V99.111A3.115,3.115,0,0,0,115.289,96Zm1.867,19.289a1.867,1.867,0,0,1-1.867,1.867H99.111a1.867,1.867,0,0,1-1.867-1.867V99.111a1.867,1.867,0,0,1,1.867-1.867h16.178a1.867,1.867,0,0,1,1.867,1.867Zm0,0" transform="translate(-89.2 -89.2)" fill="#fff"/>
  <path id="Path_160" data-name="Path 160" d="M165.667,160a5.667,5.667,0,1,0,5.667,5.667A5.667,5.667,0,0,0,165.667,160Zm0,10.2a4.533,4.533,0,1,1,4.533-4.533A4.533,4.533,0,0,1,165.667,170.2Zm0,0" transform="translate(-147.667 -147.667)" fill="#fff"/>
  <path id="Path_161" data-name="Path 161" d="M305.7,128a1.7,1.7,0,1,0,1.7,1.7A1.7,1.7,0,0,0,305.7,128Zm0,2.267a.567.567,0,1,1,.567-.567A.567.567,0,0,1,305.7,130.267Zm0,0" transform="translate(-281.059 -118.341)" fill="#fff"/>
</svg>
