<svg id="twitter" xmlns="http://www.w3.org/2000/svg" width="36" height="36" viewBox="0 0 36 36">
  <g id="Group_72" data-name="Group 72">
    <g id="Group_71" data-name="Group 71">
      <path id="Path_156" data-name="Path 156" d="M168.514,163.388a7.365,7.365,0,0,1-2.313.886,3.661,3.661,0,0,0-2.659-1.135,3.607,3.607,0,0,0-3.634,3.545,3.548,3.548,0,0,0,.1.815,10.379,10.379,0,0,1-7.5-3.74,3.5,3.5,0,0,0,1.126,4.751,3.669,3.669,0,0,1-1.649-.452v.044a3.6,3.6,0,0,0,2.916,3.545,3.715,3.715,0,0,1-1.64.062,3.634,3.634,0,0,0,3.395,2.482,7.366,7.366,0,0,1-4.494,1.551,7.54,7.54,0,0,1-.886-.053,10.415,10.415,0,0,0,5.575,1.613A10.193,10.193,0,0,0,167.227,167.3q0-.089,0-.179v-.461A7.365,7.365,0,0,0,169,164.806a7.355,7.355,0,0,1-2.092.567A3.608,3.608,0,0,0,168.514,163.388Z" transform="translate(-141.376 -152.214)" fill="#fff"/>
      <path id="Path_157" data-name="Path 157" d="M18,0A18,18,0,1,0,36,18,18,18,0,0,0,18,0Zm0,34.364A16.364,16.364,0,1,1,34.364,18,16.364,16.364,0,0,1,18,34.364Z" fill="#fff"/>
    </g>
  </g>
</svg>
