<?xml version="1.0" encoding="UTF-8"?>
<svg id="Layer_2" data-name="Layer 2" xmlns="http://www.w3.org/2000/svg" viewBox="0 0 3992.39 661.82">
  <defs>
    <style>
      .cls-1 {
        fill: #201600;
        stroke: #201600;
        stroke-miterlimit: 10;
        stroke-width: 3px;
      }
    </style>
  </defs>
  <g id="Layer_2-2" data-name="Layer 2">
    <path class="cls-1" d="m3992.39,660.32c-203.59,0-305.93-166.39-404.88-327.31-97.24-158.16-197.81-321.69-393.32-321.69s-296.08,163.53-393.32,321.69c-98.95,160.92-201.26,327.31-404.85,327.31s-305.9-166.39-404.85-327.31C1893.92,174.85,1793.36,11.32,1597.84,11.32s-296.08,163.53-393.32,321.69c-98.95,160.92-201.26,327.31-404.85,327.31s-305.9-166.39-404.85-327.31C297.55,174.85,197.01,11.32,1.5,11.32V1.5c203.59,0,305.9,166.39,404.85,327.31,97.24,158.16,197.81,321.69,393.29,321.69s296.08-163.53,393.32-321.69C1291.91,167.89,1394.22,1.5,1597.81,1.5s305.9,166.39,404.85,327.31c97.24,158.16,197.81,321.69,393.32,321.69s296.08-163.53,393.32-321.69C2888.26,167.89,2990.57,1.5,3194.16,1.5s305.9,166.39,404.85,327.31c97.24,158.16,197.81,321.69,393.32,321.69"/>
  </g>
</svg>