<svg xmlns="http://www.w3.org/2000/svg" width="25" height="20" viewBox="0 0 25 20">
  <path id="Icon_awesome-sitemap" data-name="Icon awesome-sitemap" d="M5,13.75H1.25A1.25,1.25,0,0,0,0,15v3.75A1.25,1.25,0,0,0,1.25,20H5a1.25,1.25,0,0,0,1.25-1.25V15A1.25,1.25,0,0,0,5,13.75Zm-.937-3.125h7.5V12.5h1.875V10.625h7.5V12.5h1.875V10.25a1.5,1.5,0,0,0-1.5-1.5H13.438V6.25H15A1.25,1.25,0,0,0,16.25,5V1.25A1.25,1.25,0,0,0,15,0H10A1.25,1.25,0,0,0,8.75,1.25V5A1.25,1.25,0,0,0,10,6.25h1.563v2.5H3.688a1.5,1.5,0,0,0-1.5,1.5V12.5H4.063ZM14.375,13.75h-3.75A1.25,1.25,0,0,0,9.375,15v3.75A1.25,1.25,0,0,0,10.625,20h3.75a1.25,1.25,0,0,0,1.25-1.25V15A1.25,1.25,0,0,0,14.375,13.75Zm9.375,0H20A1.25,1.25,0,0,0,18.75,15v3.75A1.25,1.25,0,0,0,20,20h3.75A1.25,1.25,0,0,0,25,18.75V15A1.25,1.25,0,0,0,23.75,13.75Z" fill="#fff"/>
</svg>
