<?xml version="1.0" encoding="UTF-8" standalone="no"?>
<!-- Created with Inkscape (http://www.inkscape.org/) -->

<svg
   xmlns:dc="http://purl.org/dc/elements/1.1/"
   xmlns:cc="http://creativecommons.org/ns#"
   xmlns:rdf="http://www.w3.org/1999/02/22-rdf-syntax-ns#"
   xmlns:svg="http://www.w3.org/2000/svg"
   xmlns="http://www.w3.org/2000/svg"
   version="1.1"
   width="142"
   height="80"
   id="svg4433">
  <defs
     id="defs4435">
    <clipPath
       id="clipPath4703">
      <path
         d="m 0,757.646 596.367,0 0,-757.586 L 0,0.06 0,757.646 z"
         id="path4705" />
    </clipPath>
    <clipPath
       id="clipPath4619">
      <path
         d="m 64.443,600.294 466.707,0 0,-398.62 -466.707,0 0,398.62 z"
         id="path4621" />
    </clipPath>
    <clipPath
       id="clipPath4609">
      <path
         d="m 0,757.646 596.367,0 0,-757.586 L 0,0.06 0,757.646 z"
         id="path4611" />
    </clipPath>
    <clipPath
       id="clipPath4603">
      <path
         d="m 0.66898,765.331 0.00204,-773.8412 603.77798,0 0,773.8412"
         id="path4605" />
    </clipPath>
    <clipPath
       id="clipPath4583">
      <path
         d="m 0,757.646 596.367,0 0,-757.586 L 0,0.06 0,757.646 z"
         id="path4585" />
    </clipPath>
  </defs>
  <metadata
     id="metadata4437">
    <rdf:RDF>
      <cc:Work
         rdf:about="">
        <dc:format>image/svg+xml</dc:format>
        <dc:type
           rdf:resource="http://purl.org/dc/dcmitype/StillImage" />
        <dc:title></dc:title>
      </cc:Work>
    </rdf:RDF>
  </metadata>
  <g
     transform="matrix(1.25,0,0,-1.25,72.217813,57.554975)"
     id="g4629">
    <path
       d="m 0,0 3.194,0 0,7.513 4.702,0 c 2.939,0 3.629,-1.482 3.629,-4.83 0,-0.894 0,-1.891 0.486,-2.683 l 3.424,0 c -0.69,0.741 -0.997,2.658 -0.997,4.804 0,2.862 -1.61,3.731 -2.709,3.859 l 0,0.051 c 0.614,0.204 3.016,1.099 3.016,4.6 0,3.092 -2.019,4.932 -6.031,4.932 L 0,18.246 0,0 z m 3.194,15.639 5.188,0 c 1.661,0 3.169,-0.434 3.169,-2.786 0,-1.942 -1.074,-2.913 -3.118,-2.913 l -5.239,0 0,5.699 z M 18.628,0 l 13.314,0 0,2.76 -10.119,0 0,5.341 9.199,0 0,2.606 -9.199,0 0,4.779 9.94,0 0,2.76 -13.135,0 0,-18.246 z m 32.294,12.23 c -0.408,3.936 -3.603,6.236 -7.742,6.236 -5.443,0 -8.74,-4.37 -8.74,-9.557 0,-5.239 3.297,-9.562 8.74,-9.562 4.42,0 7.487,3.02 7.768,7.389 l -3.118,0 C 47.549,4.079 46.042,1.958 43.18,1.958 c -3.91,0 -5.546,3.449 -5.546,6.951 0,3.5 1.636,6.95 5.546,6.95 2.657,0 4.011,-1.508 4.548,-3.629 l 3.194,0"
       id="path4631"
       style="fill:#005bab;fill-opacity:1;fill-rule:nonzero;stroke:none" />
  </g>
  <g
     transform="matrix(1.25,0,0,-1.25,4.4053125,0.434975)"
     id="g4633">
    <path
       d="m 0,0 46.595,0 0,-46.349 -46.595,0 c -1.904,0 -3.462,2.232 -3.462,4.961 l 0,36.428 C -3.462,-2.232 -1.905,0 0,0"
       id="path4635"
       style="fill:#faa61a;fill-opacity:1;fill-rule:evenodd;stroke:none" />
  </g>
  <g
     transform="matrix(1.25,0,0,-1.25,46.601563,49.262475)"
     id="g4637">
    <path
       d="m 0,0 -8.279,8.696 2.44,-8.288 -4.026,7.387 0.288,-11.762 -2.805,11.599 -2.019,-8.351 0.208,8.491 -5.661,-10.386 3.346,11.368 -5.872,-6.168 4.467,7.317 -10.165,-6.206 8.531,8.122 -8.09,-2.381 7.577,4.13 -11.985,-0.294 11.411,2.759 -8.13,1.967 8.646,-0.213 -10.574,5.764 11.265,-3.316 -6.032,5.743 7.36,-4.493 -6.282,10.29 8.128,-8.537 -2.355,7.998 4.098,-7.519 -0.294,12.025 2.787,-11.528 1.971,8.149 -0.208,-8.48 5.727,10.506 -3.374,-11.458 5.834,6.127 -4.378,-7.172 10.142,6.193 -8.702,-8.286 8.195,2.413 -7.328,-3.994 11.802,0.289 -11.716,-2.833 8.369,-2.024 -8.324,0.204 10.318,-5.624 -11.56,3.403 6.262,-5.961 -7.129,4.351"
       id="path4639"
       style="fill:#ffffff;fill-opacity:1;fill-rule:evenodd;stroke:none" />
  </g>
  <g
     transform="matrix(1.25,0,0,-1.25,67.334063,16.376225)"
     id="g4641">
    <path
       d="m 0,0 -0.798,-0.537 c 1.219,-2.805 3.257,-4.829 5.096,-4.829 1.973,0 3.324,1.39 3.324,3.025 0,0.414 -0.066,0.926 -0.244,1.365 l 0.044,0.049 c 0.4,-0.317 1.662,-0.78 1.906,-0.78 0.266,0 0.554,0.024 0.798,0.122 l -0.111,-3.489 2.105,-1.54 0,11.005 2.216,0 -1.108,2.049 -5.672,0 1.063,-2.049 1.462,0 0,-3.025 C 10.081,0.732 8.885,0 7.932,0 7.445,0 6.736,0.342 6.204,0.903 6.957,1.464 7.179,2.025 7.179,2.634 7.179,4.366 4.919,6.732 3.035,6.732 2.459,6.732 0.908,6.245 0.088,5.878 L 1.13,3.732 c 1.418,0.659 2.88,1 3.346,1 0.554,0 0.93,-0.219 0.93,-0.878 C 5.406,2.756 4.387,1.805 2.282,1.464 1.839,1.39 1.728,1.244 1.728,1.146 c 0,-0.17 0.709,-1.243 1.219,-1.853 0.842,0.195 1.883,0.658 2.459,1.049 0.244,-0.415 0.443,-1.098 0.443,-1.757 0,-1.122 -1.041,-2 -2.371,-2 C 2.238,-3.415 0.997,-2.244 0,0 m 16.818,-6.614 0,11.005 2.681,0 -1.108,2.049 -6.275,0 1.112,-2.049 1.618,0 -0.155,-9.465 2.127,-1.54 z m 1.48,11.005 3.416,0 0,-3.366 c 0,-0.269 -0.088,-0.44 -0.243,-0.44 -0.377,0 -0.909,0.61 -1.485,0.61 -0.31,0 -0.642,-0.536 -0.642,-0.805 0,-0.39 0.398,-1.024 1.196,-2.097 l 3.723,-5.053 0.798,0.857 c -1.507,1.708 -2.394,2.781 -2.881,3.61 0.775,0.61 1.44,1.463 1.44,2.391 l 0,4.293 3.745,0 -1.108,2.049 -9.067,0 1.108,-2.049 z m 15.803,-14.957 0.908,0.61 -1.684,2.976 c 2.017,0.22 3.856,2.126 3.856,3.224 0,0.756 -0.554,2 -1.219,3.073 -0.221,0.342 -0.51,0.488 -1.152,0.488 -0.444,0 -2.682,-0.659 -2.859,-0.659 -0.221,0 -0.421,0.147 -0.421,0.708 0,0.634 0.421,1.171 0.953,1.195 l 3.634,0 c 0.221,0 0.377,0.195 0.377,0.585 l 0,2.757 2.349,0 -1.108,2.049 -9.842,0 1.108,-2.049 5.587,0 0,-1.391 -3.102,0 c -0.687,0 -1.374,-0.658 -1.374,-2.024 0,-1.561 1.618,-3.878 2.748,-3.878 0.797,0 2.016,0.658 2.393,0.658 0.266,0 0.377,-0.195 0.377,-0.39 0,-0.635 -1.264,-2.366 -3.435,-2.464 -0.332,1.025 -0.687,1.317 -1.196,1.317 -0.377,0 -0.71,-0.39 -0.71,-0.804 0,-0.561 0,-1.415 0.111,-1.659 0.199,-0.443 0.865,-0.785 1.263,-0.809 0.399,-0.024 0.665,-0.098 0.887,-0.439 0.243,-0.366 1.019,-2 1.551,-3.074 m 0.927,16.811 0.952,0 c -0.553,1.024 -0.952,2.463 -0.952,3 0,0.829 0.332,1.219 0.997,1.219 0.465,0 0.753,-0.439 0.975,-1.537 l 0.801,0.269 c -0.291,2.561 -1.222,3.317 -2.175,3.317 -1.152,0 -2.15,-0.975 -2.15,-2.39 0,-0.976 0.909,-2.83 1.552,-3.878 m 15.248,-7.952 -0.11,-3.367 2.104,-1.54 0,11.005 2.216,0 -1.108,2.049 -13.431,0 1.108,-2.049 3.216,0 0,-3.61 c 0,-0.171 -0.044,-0.293 -0.11,-0.293 -0.244,0 -0.754,0.707 -1.219,0.707 -0.377,0 -0.842,-0.39 -0.842,-0.853 0,-0.659 0.598,-1.732 0.975,-2.293 l 3.678,-5.322 0.864,0.883 c -1.174,1.366 -2.038,2.317 -2.925,3.707 0.421,0.39 1.086,0.927 1.529,1.732 0.576,-0.561 1.263,-1.22 2.039,-1.22 0.754,0 1.307,0.049 2.016,0.464 m -0.044,6.098 0,-3.757 c -0.177,-0.292 -1.928,-0.756 -2.282,-0.756 -0.576,0 -0.997,0.025 -1.64,0.244 l 0,4.269 3.922,0 z m 9.329,0 -1.108,2.049 -2.172,0 c -0.354,3.805 -2.038,5.536 -4.059,5.536 -1.573,0 -2.791,-1.195 -2.791,-2.536 0,-0.61 0.332,-1.391 0.753,-1.878 l 1.196,0.146 c -0.044,0.341 -0.044,0.561 -0.044,0.781 0,0.902 0.665,1.634 1.596,1.634 1.244,0 2.374,-1.488 2.418,-3.683 l -3.128,0 1.108,-2.049 1.578,0 -0.156,-9.465 2.127,-1.54 0,11.005"
       id="path4643"
       style="fill:#005bab;fill-opacity:1;fill-rule:nonzero;stroke:none" />
  </g>
  <g
     transform="matrix(1.25,0,0,-1.25,67.334063,16.376225)"
     id="g4645">
    <path
       d="m 0,0 -0.798,-0.537 c 1.219,-2.805 3.257,-4.829 5.096,-4.829 1.973,0 3.324,1.39 3.324,3.025 0,0.414 -0.066,0.926 -0.244,1.365 l 0.044,0.049 c 0.4,-0.317 1.662,-0.78 1.906,-0.78 0.266,0 0.554,0.024 0.798,0.122 l -0.111,-3.489 2.105,-1.54 0,11.005 2.216,0 -1.108,2.049 -5.672,0 1.063,-2.049 1.462,0 0,-3.025 C 10.081,0.732 8.885,0 7.932,0 7.445,0 6.736,0.342 6.204,0.903 6.957,1.464 7.179,2.025 7.179,2.634 7.179,4.366 4.919,6.732 3.035,6.732 2.459,6.732 0.908,6.245 0.088,5.878 L 1.13,3.732 c 1.418,0.659 2.88,1 3.346,1 0.554,0 0.93,-0.219 0.93,-0.878 C 5.406,2.756 4.387,1.805 2.282,1.464 1.839,1.39 1.728,1.244 1.728,1.146 c 0,-0.17 0.709,-1.243 1.219,-1.853 0.842,0.195 1.883,0.658 2.459,1.049 0.244,-0.415 0.443,-1.098 0.443,-1.757 0,-1.122 -1.041,-2 -2.371,-2 C 2.238,-3.415 0.997,-2.244 0,0 z"
       id="path4647"
       style="fill:none;stroke:#005bab;stroke-width:0.219;stroke-linecap:butt;stroke-linejoin:miter;stroke-miterlimit:2.61299992;stroke-opacity:1;stroke-dasharray:none" />
    <g
       transform="translate(16.818,-6.614)"
       id="g4649">
      <path
         d="m 0,0 0,11.005 2.681,0 -1.108,2.049 -6.275,0 1.112,-2.049 1.618,0 L -2.127,1.54 0,0 z"
         id="path4651"
         style="fill:none;stroke:#005bab;stroke-width:0.219;stroke-linecap:butt;stroke-linejoin:miter;stroke-miterlimit:2.61299992;stroke-opacity:1;stroke-dasharray:none" />
      <g
         transform="translate(1.48,11.005)"
         id="g4653">
        <path
           d="m 0,0 3.416,0 0,-3.366 c 0,-0.269 -0.088,-0.44 -0.243,-0.44 -0.377,0 -0.909,0.61 -1.485,0.61 -0.31,0 -0.642,-0.536 -0.642,-0.805 0,-0.39 0.398,-1.024 1.196,-2.097 l 3.723,-5.053 0.798,0.857 c -1.507,1.708 -2.394,2.781 -2.881,3.61 0.775,0.61 1.44,1.463 1.44,2.391 l 0,4.293 3.745,0 -1.108,2.049 -9.067,0 L 0,0 z"
           id="path4655"
           style="fill:none;stroke:#005bab;stroke-width:0.219;stroke-linecap:butt;stroke-linejoin:miter;stroke-miterlimit:2.61299992;stroke-opacity:1;stroke-dasharray:none" />
        <g
           transform="translate(15.803,-14.957)"
           id="g4657">
          <path
             d="m 0,0 0.908,0.61 -1.684,2.976 c 2.017,0.22 3.856,2.126 3.856,3.224 0,0.756 -0.554,2 -1.219,3.073 -0.221,0.342 -0.51,0.488 -1.152,0.488 -0.444,0 -2.682,-0.659 -2.859,-0.659 -0.221,0 -0.421,0.147 -0.421,0.708 0,0.634 0.421,1.171 0.953,1.195 l 3.634,0 c 0.221,0 0.377,0.195 0.377,0.585 l 0,2.757 2.349,0 -1.108,2.049 -9.842,0 1.108,-2.049 5.587,0 0,-1.391 -3.102,0 c -0.687,0 -1.374,-0.658 -1.374,-2.024 0,-1.561 1.618,-3.878 2.748,-3.878 0.797,0 2.016,0.658 2.393,0.658 0.266,0 0.377,-0.195 0.377,-0.39 0,-0.635 -1.264,-2.366 -3.435,-2.464 -0.332,1.025 -0.687,1.317 -1.196,1.317 -0.377,0 -0.71,-0.39 -0.71,-0.804 0,-0.561 0,-1.415 0.111,-1.659 C -3.502,3.879 -2.836,3.537 -2.438,3.513 -2.039,3.489 -1.773,3.415 -1.551,3.074 -1.308,2.708 -0.532,1.074 0,0 z"
             id="path4659"
             style="fill:none;stroke:#005bab;stroke-width:0.219;stroke-linecap:butt;stroke-linejoin:miter;stroke-miterlimit:2.61299992;stroke-opacity:1;stroke-dasharray:none" />
          <g
             transform="translate(0.927,16.811)"
             id="g4661">
            <path
               d="M 0,0 0.952,0 C 0.399,1.024 0,2.463 0,3 0,3.829 0.332,4.219 0.997,4.219 1.462,4.219 1.75,3.78 1.972,2.682 L 2.773,2.951 C 2.482,5.512 1.551,6.268 0.598,6.268 c -1.152,0 -2.15,-0.975 -2.15,-2.39 C -1.552,2.902 -0.643,1.048 0,0 z"
               id="path4663"
               style="fill:none;stroke:#005bab;stroke-width:0.219;stroke-linecap:butt;stroke-linejoin:miter;stroke-miterlimit:2.61299992;stroke-opacity:1;stroke-dasharray:none" />
            <g
               transform="translate(15.248,-7.952)"
               id="g4665">
              <path
                 d="m 0,0 -0.11,-3.367 2.104,-1.54 0,11.005 2.216,0 -1.108,2.049 -13.431,0 1.108,-2.049 3.216,0 0,-3.61 c 0,-0.171 -0.044,-0.293 -0.11,-0.293 -0.244,0 -0.754,0.707 -1.219,0.707 -0.377,0 -0.842,-0.39 -0.842,-0.853 0,-0.659 0.598,-1.732 0.975,-2.293 l 3.678,-5.322 0.864,0.883 c -1.174,1.366 -2.038,2.317 -2.925,3.707 0.421,0.39 1.086,0.927 1.529,1.732 0.576,-0.561 1.263,-1.22 2.039,-1.22 0.754,0 1.307,0.049 2.016,0.464 z"
                 id="path4667"
                 style="fill:none;stroke:#005bab;stroke-width:0.219;stroke-linecap:butt;stroke-linejoin:miter;stroke-miterlimit:2.61299992;stroke-opacity:1;stroke-dasharray:none" />
              <g
                 transform="translate(-0.044,6.098)"
                 id="g4669">
                <path
                   d="m 0,0 0,-3.757 c -0.177,-0.292 -1.928,-0.756 -2.282,-0.756 -0.576,0 -0.997,0.025 -1.64,0.244 L -3.922,0 0,0 z"
                   id="path4671"
                   style="fill:none;stroke:#005bab;stroke-width:0.219;stroke-linecap:butt;stroke-linejoin:miter;stroke-miterlimit:2.61299992;stroke-opacity:1;stroke-dasharray:none" />
                <g
                   transform="translate(9.329,0)"
                   id="g4673">
                  <path
                     d="m 0,0 -1.108,2.049 -2.172,0 c -0.354,3.805 -2.038,5.536 -4.059,5.536 -1.573,0 -2.791,-1.195 -2.791,-2.536 0,-0.61 0.332,-1.391 0.753,-1.878 l 1.196,0.146 c -0.044,0.341 -0.044,0.561 -0.044,0.781 0,0.902 0.665,1.634 1.596,1.634 1.244,0 2.374,-1.488 2.418,-3.683 l -3.128,0 L -6.231,0 -4.653,0 -4.809,-9.465 -2.682,-11.005 -2.682,0 0,0 z"
                     id="path4675"
                     style="fill:none;stroke:#005bab;stroke-width:0.219;stroke-linecap:butt;stroke-linejoin:miter;stroke-miterlimit:2.61299992;stroke-opacity:1;stroke-dasharray:none" />
                </g>
              </g>
            </g>
          </g>
        </g>
      </g>
    </g>
  </g>
  <path
     d="m 66.416563,32.663725 75.288747,0 0,-1.27125 -75.288747,0 0,1.27125 z"
     id="path4677"
     style="fill:#f5821f;fill-opacity:1;fill-rule:nonzero;stroke:none" />
  <g
     transform="matrix(1.25,0,0,-1.25,0.2765625,77.686275)"
     id="g4679">
    <path
       d="m 0,0 0,5.111 3.694,0 0,-0.604 -3.018,0 0,-1.564 2.827,0 0,-0.6 -2.827,0 0,-1.74 3.137,0 L 3.813,0 0,0 z m 4.668,0 0,3.702 0.564,0 0,-0.526 c 0.272,0.407 0.665,0.61 1.178,0.61 0.223,0 0.428,-0.04 0.615,-0.12 C 7.213,3.585 7.352,3.48 7.445,3.349 7.539,3.22 7.603,3.065 7.641,2.887 7.664,2.77 7.676,2.566 7.676,2.276 l 0,-2.276 -0.628,0 0,2.252 C 7.048,2.507 7.024,2.699 6.975,2.826 6.926,2.952 6.839,3.053 6.716,3.128 6.591,3.204 6.445,3.242 6.278,3.242 6.01,3.242 5.78,3.157 5.585,2.988 5.391,2.817 5.295,2.496 5.295,2.022 L 5.295,0 4.668,0 z m 6.372,0 0,0.467 C 10.805,0.1 10.46,-0.084 10.004,-0.084 9.709,-0.084 9.438,-0.003 9.191,0.161 8.943,0.322 8.751,0.55 8.615,0.842 8.479,1.134 8.411,1.468 8.411,1.848 c 0,0.369 0.062,0.704 0.185,1.005 0.123,0.301 0.308,0.532 0.554,0.692 0.246,0.16 0.523,0.241 0.827,0.241 0.223,0 0.421,-0.047 0.595,-0.141 0.175,-0.094 0.317,-0.217 0.426,-0.368 l 0,1.834 0.623,0 0,-5.111 -0.581,0 z M 9.056,1.848 c 0,-0.475 0.1,-0.83 0.3,-1.064 0.2,-0.234 0.436,-0.352 0.708,-0.352 0.274,0 0.507,0.113 0.699,0.337 0.191,0.223 0.288,0.566 0.288,1.027 0,0.506 -0.098,0.877 -0.293,1.114 C 10.563,3.148 10.322,3.266 10.036,3.266 9.757,3.266 9.524,3.152 9.337,2.925 9.15,2.697 9.056,2.338 9.056,1.848 m 3.539,3.263 0.62701,0 0,-5.111 -0.62701,0 0,5.111 z m 4.134,-3.919 0.648,-0.08 C 17.275,0.733 17.086,0.439 16.81,0.23 16.533,0.021 16.179,-0.084 15.749,-0.084 c -0.541,0 -0.971,0.167 -1.287,0.5 -0.318,0.333 -0.476,0.801 -0.476,1.403 0,0.624 0.161,1.107 0.481,1.451 0.321,0.344 0.736,0.516 1.248,0.516 0.495,0 0.899,-0.169 1.212,-0.506 0.315,-0.336 0.472,-0.811 0.472,-1.422 l -0.004,-0.167 -2.761,0 c 0.023,-0.407 0.138,-0.719 0.346,-0.934 0.207,-0.217 0.464,-0.325 0.773,-0.325 0.23,0 0.426,0.06 0.589,0.182 0.163,0.12 0.291,0.313 0.387,0.578 m -2.06,1.015 2.067,0 C 16.709,2.518 16.629,2.752 16.499,2.907 16.299,3.148 16.04,3.27 15.722,3.27 15.434,3.27 15.191,3.173 14.995,2.981 14.799,2.788 14.69,2.53 14.669,2.207 m 3.246,-1.102 0.62,0.098 c 0.035,-0.249 0.132,-0.439 0.292,-0.573 0.158,-0.132 0.38,-0.198 0.667,-0.198 0.288,0 0.502,0.059 0.641,0.176 0.14,0.118 0.21,0.256 0.21,0.413 0,0.143 -0.062,0.253 -0.186,0.335 -0.086,0.056 -0.3,0.126 -0.641,0.212 -0.459,0.117 -0.78,0.217 -0.957,0.302 -0.177,0.085 -0.313,0.203 -0.405,0.353 -0.091,0.15 -0.138,0.315 -0.138,0.496 0,0.165 0.039,0.318 0.115,0.458 0.075,0.142 0.178,0.258 0.308,0.351 0.098,0.071 0.231,0.133 0.399,0.183 0.169,0.05 0.349,0.075 0.542,0.075 0.291,0 0.545,-0.043 0.765,-0.126 0.221,-0.083 0.382,-0.196 0.487,-0.339 0.105,-0.144 0.176,-0.334 0.215,-0.574 L 20.237,2.663 C 20.208,2.853 20.127,3.002 19.994,3.109 19.861,3.216 19.671,3.27 19.427,3.27 19.14,3.27 18.934,3.222 18.811,3.127 18.687,3.032 18.625,2.92 18.625,2.792 l 0.078,-0.22 C 18.754,2.504 18.834,2.45 18.943,2.405 19.006,2.382 19.191,2.328 19.498,2.245 19.941,2.126 20.251,2.03 20.426,1.954 20.602,1.879 20.74,1.768 20.84,1.624 20.94,1.48 20.99,1.302 20.99,1.087 20.99,0.878 20.928,0.682 20.807,0.496 20.684,0.312 20.508,0.169 20.278,0.067 c -0.229,-0.1 -0.49,-0.151 -0.78,-0.151 -0.482,0 -0.849,0.1 -1.101,0.3 -0.252,0.2 -0.413,0.497 -0.482,0.889 m 3.57,0 0.62,0.098 c 0.034,-0.249 0.132,-0.439 0.291,-0.573 0.159,-0.132 0.381,-0.198 0.668,-0.198 0.288,0 0.502,0.059 0.641,0.176 0.139,0.118 0.21,0.256 0.21,0.413 0,0.143 -0.062,0.253 -0.186,0.335 -0.085,0.056 -0.3,0.126 -0.641,0.212 -0.46,0.117 -0.78,0.217 -0.957,0.302 -0.177,0.085 -0.313,0.203 -0.405,0.353 -0.091,0.15 -0.138,0.315 -0.138,0.496 0,0.165 0.039,0.318 0.115,0.458 0.075,0.142 0.178,0.258 0.308,0.351 0.098,0.071 0.231,0.133 0.399,0.183 0.168,0.05 0.349,0.075 0.542,0.075 0.29,0 0.545,-0.043 0.765,-0.126 0.221,-0.083 0.382,-0.196 0.487,-0.339 0.105,-0.144 0.176,-0.334 0.215,-0.574 L 23.807,2.663 C 23.778,2.853 23.697,3.002 23.564,3.109 23.431,3.216 23.241,3.27 22.997,3.27 22.709,3.27 22.503,3.222 22.381,3.127 22.257,3.032 22.195,2.92 22.195,2.792 l 0.078,-0.22 C 22.324,2.504 22.404,2.45 22.513,2.405 22.576,2.382 22.761,2.328 23.068,2.245 23.511,2.126 23.821,2.03 23.996,1.954 24.172,1.879 24.31,1.768 24.41,1.624 24.51,1.48 24.56,1.302 24.56,1.087 24.56,0.878 24.498,0.682 24.377,0.496 24.254,0.312 24.078,0.169 23.848,0.067 c -0.23,-0.1 -0.49,-0.151 -0.78,-0.151 -0.482,0 -0.849,0.1 -1.101,0.3 -0.252,0.2 -0.413,0.497 -0.482,0.889 m 8.338,0.087 0.648,-0.08 C 30.369,0.733 30.18,0.439 29.904,0.23 29.627,0.021 29.273,-0.084 28.843,-0.084 c -0.541,0 -0.97,0.167 -1.287,0.5 -0.318,0.333 -0.476,0.801 -0.476,1.403 0,0.624 0.161,1.107 0.481,1.451 0.321,0.344 0.736,0.516 1.248,0.516 0.495,0 0.9,-0.169 1.212,-0.506 0.315,-0.336 0.472,-0.811 0.472,-1.422 l -0.004,-0.167 -2.76,0 c 0.022,-0.407 0.138,-0.719 0.344,-0.934 0.207,-0.217 0.464,-0.325 0.774,-0.325 0.23,0 0.426,0.06 0.589,0.182 0.163,0.12 0.292,0.313 0.387,0.578 m -2.06,1.015 2.067,0 c -0.027,0.311 -0.107,0.545 -0.237,0.7 -0.2,0.241 -0.459,0.363 -0.777,0.363 -0.288,0 -0.531,-0.097 -0.727,-0.289 C 27.893,2.788 27.784,2.53 27.763,2.207 M 31.26,0 l 0,3.702 0.564,0 0,-0.526 c 0.273,0.407 0.665,0.61 1.178,0.61 0.224,0 0.428,-0.04 0.615,-0.12 0.188,-0.081 0.328,-0.186 0.42,-0.317 0.094,-0.129 0.159,-0.284 0.197,-0.462 0.022,-0.117 0.034,-0.321 0.034,-0.611 l 0,-2.276 -0.628,0 0,2.252 c 0,0.255 -0.024,0.447 -0.072,0.574 -0.049,0.126 -0.136,0.227 -0.26,0.302 -0.125,0.076 -0.27,0.114 -0.438,0.114 -0.268,0 -0.497,-0.085 -0.692,-0.254 C 31.984,2.817 31.887,2.496 31.887,2.022 L 31.887,0 31.26,0 z m 6.504,1.192 0.649,-0.08 C 38.311,0.733 38.121,0.439 37.845,0.23 c -0.277,-0.209 -0.631,-0.314 -1.06,-0.314 -0.541,0 -0.971,0.167 -1.288,0.5 -0.317,0.333 -0.475,0.801 -0.475,1.403 0,0.624 0.16,1.107 0.48,1.451 0.322,0.344 0.737,0.516 1.248,0.516 0.496,0 0.9,-0.169 1.213,-0.506 0.314,-0.336 0.471,-0.811 0.471,-1.422 l -0.003,-0.167 -2.761,0 c 0.023,-0.407 0.138,-0.719 0.345,-0.934 0.207,-0.217 0.464,-0.325 0.774,-0.325 0.229,0 0.425,0.06 0.589,0.182 0.163,0.12 0.291,0.313 0.386,0.578 m -2.059,1.015 2.066,0 c -0.027,0.311 -0.107,0.545 -0.236,0.7 -0.2,0.241 -0.46,0.363 -0.777,0.363 C 36.47,3.27 36.227,3.173 36.031,2.981 35.834,2.788 35.726,2.53 35.705,2.207 M 39.195,0 l 0,3.702 0.564,0 0,-0.561 c 0.143,0.262 0.277,0.436 0.399,0.519 0.122,0.083 0.256,0.126 0.402,0.126 0.212,0 0.426,-0.068 0.646,-0.202 L 40.989,3.001 C 40.837,3.092 40.683,3.138 40.53,3.138 40.391,3.138 40.269,3.096 40.16,3.014 40.05,2.931 39.973,2.816 39.926,2.67 39.856,2.447 39.822,2.204 39.822,1.938 l 0,-1.938 -0.627,0 z m 2.269,-0.307 0.61,-0.091 c 0.025,-0.188 0.096,-0.324 0.212,-0.411 0.156,-0.116 0.369,-0.174 0.638,-0.174 0.291,0 0.515,0.058 0.673,0.174 0.159,0.116 0.265,0.279 0.32,0.488 0.034,0.128 0.048,0.396 0.046,0.805 C 43.689,0.162 43.347,0 42.938,0 c -0.509,0 -0.903,0.183 -1.182,0.551 -0.278,0.366 -0.418,0.808 -0.418,1.32 0,0.354 0.064,0.68 0.191,0.979 0.129,0.298 0.314,0.529 0.557,0.692 0.243,0.162 0.528,0.244 0.856,0.244 0.436,0 0.797,-0.177 1.08,-0.53 l 0,0.446 0.58,0 0,-3.2 c 0,-0.576 -0.06,-0.985 -0.176,-1.226 -0.118,-0.24 -0.304,-0.43 -0.559,-0.57 -0.254,-0.139 -0.567,-0.209 -0.94,-0.209 -0.441,0 -0.798,0.1 -1.069,0.299 -0.273,0.198 -0.404,0.497 -0.394,0.897 m 0.519,2.224 c 0,-0.486 0.096,-0.84 0.29,-1.063 0.193,-0.224 0.434,-0.334 0.724,-0.334 0.288,0 0.53,0.11 0.725,0.332 0.195,0.222 0.293,0.57 0.293,1.044 0,0.454 -0.1,0.796 -0.301,1.025 -0.201,0.23 -0.444,0.345 -0.727,0.345 -0.278,0 -0.515,-0.113 -0.712,-0.34 C 42.08,2.7 41.983,2.363 41.983,1.917 m 3.538,-3.343 -0.07,0.589 c 0.138,-0.037 0.257,-0.056 0.359,-0.056 0.14,0 0.252,0.024 0.335,0.071 l 0.206,0.195 c 0.04,0.062 0.103,0.217 0.191,0.466 l 0.056,0.154 -1.404,3.709 0.676,0 0.771,-2.143 c 0.099,-0.273 0.189,-0.558 0.268,-0.858 0.072,0.287 0.158,0.569 0.258,0.843 l 0.791,2.158 0.627,0 -1.407,-3.765 c -0.152,-0.407 -0.269,-0.687 -0.352,-0.84 -0.112,-0.207 -0.24,-0.358 -0.383,-0.455 -0.146,-0.096 -0.317,-0.145 -0.517,-0.145 -0.121,0 -0.256,0.026 -0.405,0.077 m 3.247,2.141 0.71503,0 0,-0.71497 -0.71503,0 0,0.71497 z m 3.985,4.396 0.67599,0 0,-5.111 -0.67599,0 0,5.111 z M 54.541,0 l 0,3.702 0.564,0 0,-0.526 c 0.272,0.407 0.665,0.61 1.178,0.61 0.224,0 0.428,-0.04 0.615,-0.12 0.188,-0.081 0.328,-0.186 0.42,-0.317 0.094,-0.129 0.158,-0.284 0.197,-0.462 0.022,-0.117 0.034,-0.321 0.034,-0.611 l 0,-2.276 -0.628,0 0,2.252 c 0,0.255 -0.024,0.447 -0.073,0.574 -0.048,0.126 -0.135,0.227 -0.259,0.302 -0.125,0.076 -0.27,0.114 -0.438,0.114 -0.268,0 -0.497,-0.085 -0.693,-0.254 -0.194,-0.171 -0.29,-0.492 -0.29,-0.966 l 0,-2.022 -0.627,0 z m 4.119,0 0,3.214 -0.553,0 0,0.488 0.553,0 0,0.394 c 0,0.248 0.023,0.434 0.067,0.554 0.061,0.163 0.167,0.295 0.319,0.396 0.152,0.101 0.365,0.151 0.64,0.151 0.176,0 0.371,-0.02 0.586,-0.063 L 60.178,4.587 c -0.13,0.024 -0.254,0.036 -0.37,0.036 -0.191,0 -0.325,-0.041 -0.404,-0.123 -0.08,-0.081 -0.119,-0.233 -0.119,-0.457 l 0,-0.341 0.721,0 0,-0.488 -0.721,0 0,-3.214 -0.625,0 z m 1.838,5.111 0.62802,0 0,-0.72198 -0.62802,0 0,0.72198 z m 0,-1.409 0.62802,0 0,-3.702 -0.62802,0 0,3.702 z M 62.081,0 l 0,3.702 0.564,0 0,-0.526 c 0.273,0.407 0.666,0.61 1.178,0.61 0.224,0 0.429,-0.04 0.616,-0.12 0.188,-0.081 0.327,-0.186 0.42,-0.317 0.094,-0.129 0.158,-0.284 0.196,-0.462 0.023,-0.117 0.034,-0.321 0.034,-0.611 l 0,-2.276 -0.628,0 0,2.252 c 0,0.255 -0.023,0.447 -0.072,0.574 -0.049,0.126 -0.136,0.227 -0.26,0.302 -0.125,0.076 -0.27,0.114 -0.438,0.114 -0.267,0 -0.497,-0.085 -0.692,-0.254 -0.194,-0.171 -0.29,-0.492 -0.29,-0.966 l 0,-2.022 -0.628,0 z m 3.974,5.111 0.62802,0 0,-0.72198 -0.62802,0 0,0.72198 z m 0,-1.409 0.62802,0 0,-3.702 -0.62802,0 0,3.702 z m 2.953,-3.141 0.09,-0.554 c -0.176,-0.037 -0.334,-0.056 -0.473,-0.056 -0.229,0 -0.405,0.036 -0.531,0.108 -0.125,0.072 -0.213,0.167 -0.264,0.285 -0.051,0.116 -0.077,0.364 -0.077,0.74 l 0,2.13 -0.461,0 0,0.488 0.461,0 0,0.917 0.624,0.376 0,-1.293 0.631,0 0,-0.488 -0.631,0 0,-2.165 c 0,-0.179 0.011,-0.294 0.032,-0.345 l 0.109,-0.122 c 0.05,-0.03 0.121,-0.046 0.214,-0.046 0.07,0 0.162,0.009 0.276,0.025 m 3.147,0.631 0.649,-0.08 C 72.701,0.733 72.512,0.439 72.236,0.23 c -0.277,-0.209 -0.631,-0.314 -1.06,-0.314 -0.541,0 -0.971,0.167 -1.288,0.5 -0.317,0.333 -0.476,0.801 -0.476,1.403 0,0.624 0.161,1.107 0.481,1.451 0.321,0.344 0.737,0.516 1.248,0.516 0.495,0 0.9,-0.169 1.213,-0.506 0.314,-0.336 0.471,-0.811 0.471,-1.422 l -0.003,-0.167 -2.761,0 C 70.084,1.284 70.199,0.972 70.406,0.757 70.613,0.54 70.87,0.432 71.18,0.432 c 0.229,0 0.425,0.06 0.588,0.182 0.164,0.12 0.292,0.313 0.387,0.578 m -2.06,1.015 2.067,0 C 72.135,2.518 72.055,2.752 71.925,2.907 71.726,3.148 71.466,3.27 71.148,3.27 70.861,3.27 70.618,3.173 70.421,2.981 70.225,2.788 70.117,2.53 70.095,2.207 m 5.481,-3.626 0,5.121 0.571,0 0,-0.481 c 0.135,0.188 0.287,0.33 0.457,0.424 0.169,0.094 0.375,0.141 0.617,0.141 0.316,0 0.595,-0.082 0.836,-0.244 C 78.3,3.379 78.482,3.15 78.604,2.853 78.728,2.557 78.79,2.232 78.79,1.879 78.79,1.5 78.722,1.159 78.585,0.855 78.45,0.552 78.252,0.32 77.993,0.158 c -0.26,-0.161 -0.532,-0.242 -0.817,-0.242 -0.21,0 -0.397,0.045 -0.563,0.133 -0.167,0.088 -0.303,0.2 -0.41,0.334 l 0,-1.802 -0.627,0 z m 0.568,3.249 c 0,-0.476 0.096,-0.828 0.289,-1.057 0.193,-0.227 0.427,-0.341 0.701,-0.341 0.278,0 0.517,0.118 0.716,0.354 0.199,0.236 0.299,0.601 0.299,1.096 0,0.473 -0.098,0.825 -0.292,1.061 -0.194,0.234 -0.426,0.352 -0.695,0.352 -0.267,0 -0.504,-0.125 -0.71,-0.375 C 76.246,2.67 76.144,2.306 76.144,1.83 m 3.169,0.021 c 0,0.686 0.19,1.194 0.572,1.523 0.318,0.274 0.705,0.412 1.164,0.412 0.509,0 0.925,-0.166 1.248,-0.501 0.324,-0.333 0.484,-0.794 0.484,-1.381 0,-0.477 -0.071,-0.852 -0.214,-1.125 -0.143,-0.274 -0.351,-0.485 -0.624,-0.636 -0.273,-0.151 -0.571,-0.227 -0.894,-0.227 -0.518,0 -0.937,0.166 -1.257,0.499 -0.32,0.332 -0.479,0.81 -0.479,1.436 m 0.644,0 c 0,-0.474 0.104,-0.829 0.311,-1.065 0.207,-0.236 0.468,-0.354 0.781,-0.354 0.312,0 0.571,0.119 0.778,0.356 0.206,0.236 0.309,0.598 0.309,1.083 0,0.459 -0.103,0.806 -0.311,1.042 -0.209,0.235 -0.467,0.353 -0.776,0.353 -0.313,0 -0.574,-0.118 -0.781,-0.352 C 80.061,2.68 79.957,2.325 79.957,1.851 m 3.31,-0.746 0.619,0.098 c 0.035,-0.249 0.133,-0.439 0.292,-0.573 0.158,-0.132 0.381,-0.198 0.668,-0.198 0.288,0 0.502,0.059 0.641,0.176 0.139,0.118 0.209,0.256 0.209,0.413 0,0.143 -0.061,0.253 -0.185,0.335 -0.086,0.056 -0.3,0.126 -0.641,0.212 -0.46,0.117 -0.78,0.217 -0.957,0.302 -0.178,0.085 -0.313,0.203 -0.405,0.353 -0.091,0.15 -0.138,0.315 -0.138,0.496 0,0.165 0.038,0.318 0.114,0.458 0.075,0.142 0.179,0.258 0.309,0.351 0.097,0.071 0.23,0.133 0.398,0.183 0.169,0.05 0.35,0.075 0.543,0.075 0.29,0 0.545,-0.043 0.765,-0.126 0.22,-0.083 0.382,-0.196 0.487,-0.339 0.105,-0.144 0.176,-0.334 0.215,-0.574 L 85.588,2.663 C 85.56,2.853 85.479,3.002 85.345,3.109 85.212,3.216 85.023,3.27 84.779,3.27 84.491,3.27 84.285,3.222 84.163,3.127 84.039,3.032 83.977,2.92 83.977,2.792 l 0.077,-0.22 c 0.052,-0.068 0.131,-0.122 0.241,-0.167 0.063,-0.023 0.247,-0.077 0.554,-0.16 0.444,-0.119 0.753,-0.215 0.928,-0.291 0.176,-0.075 0.315,-0.186 0.414,-0.33 0.1,-0.144 0.15,-0.322 0.15,-0.537 0,-0.209 -0.061,-0.405 -0.183,-0.591 -0.122,-0.184 -0.299,-0.327 -0.528,-0.429 -0.23,-0.1 -0.49,-0.151 -0.781,-0.151 -0.482,0 -0.848,0.1 -1.1,0.3 -0.253,0.2 -0.413,0.497 -0.482,0.889 m 3.57,0 0.619,0.098 c 0.035,-0.249 0.133,-0.439 0.292,-0.573 0.158,-0.132 0.381,-0.198 0.667,-0.198 0.288,0 0.503,0.059 0.642,0.176 0.139,0.118 0.209,0.256 0.209,0.413 0,0.143 -0.062,0.253 -0.185,0.335 -0.086,0.056 -0.3,0.126 -0.642,0.212 C 87.98,1.685 87.66,1.785 87.483,1.87 87.305,1.955 87.17,2.073 87.078,2.223 86.987,2.373 86.94,2.538 86.94,2.719 c 0,0.165 0.038,0.318 0.114,0.458 0.075,0.142 0.179,0.258 0.308,0.351 0.098,0.071 0.231,0.133 0.399,0.183 0.169,0.05 0.35,0.075 0.543,0.075 0.29,0 0.545,-0.043 0.765,-0.126 0.22,-0.083 0.382,-0.196 0.487,-0.339 0.104,-0.144 0.176,-0.334 0.215,-0.574 L 89.158,2.663 C 89.13,2.853 89.048,3.002 88.915,3.109 88.782,3.216 88.593,3.27 88.349,3.27 88.061,3.27 87.855,3.222 87.733,3.127 87.609,3.032 87.547,2.92 87.547,2.792 l 0.077,-0.22 c 0.051,-0.068 0.131,-0.122 0.241,-0.167 0.063,-0.023 0.247,-0.077 0.554,-0.16 0.444,-0.119 0.753,-0.215 0.928,-0.291 0.176,-0.075 0.314,-0.186 0.414,-0.33 0.1,-0.144 0.15,-0.322 0.15,-0.537 0,-0.209 -0.062,-0.405 -0.183,-0.591 C 89.605,0.312 89.429,0.169 89.2,0.067 c -0.23,-0.1 -0.491,-0.151 -0.781,-0.151 -0.482,0 -0.848,0.1 -1.101,0.3 -0.252,0.2 -0.412,0.497 -0.481,0.889 m 3.823,4.006 0.62802,0 0,-0.72198 -0.62802,0 0,0.72198 z m 0,-1.409 0.62802,0 0,-3.702 -0.62802,0 0,3.702 z M 92.822,0 92.24,0 l 0,5.111 0.627,0 0,-1.823 c 0.265,0.332 0.603,0.498 1.014,0.498 0.228,0 0.444,-0.046 0.647,-0.138 0.204,-0.092 0.37,-0.221 0.502,-0.387 0.131,-0.166 0.235,-0.366 0.309,-0.601 0.074,-0.235 0.112,-0.486 0.112,-0.753 0,-0.635 -0.158,-1.126 -0.472,-1.472 -0.313,-0.346 -0.69,-0.519 -1.129,-0.519 -0.437,0 -0.78,0.183 -1.028,0.548 l 0,-0.464 z m -0.007,1.879 c 0,-0.444 0.06,-0.764 0.181,-0.962 0.197,-0.323 0.465,-0.485 0.802,-0.485 0.275,0 0.511,0.119 0.711,0.358 0.2,0.238 0.3,0.593 0.3,1.065 0,0.483 -0.096,0.84 -0.288,1.07 -0.192,0.229 -0.423,0.345 -0.695,0.345 -0.275,0 -0.512,-0.119 -0.711,-0.357 -0.2,-0.238 -0.3,-0.583 -0.3,-1.034 m 3.402,3.232 0.62796,0 0,-0.72198 -0.62796,0 0,0.72198 z m 0,-1.409 0.62796,0 0,-3.702 -0.62796,0 0,3.702 z m 1.569,1.409 0.62701,0 0,-5.111 -0.62701,0 0,5.111 z m 1.603,0 0.62802,0 0,-0.72198 -0.62802,0 0,0.72198 z m 0,-1.409 0.62802,0 0,-3.702 -0.62802,0 0,3.702 z m 2.953,-3.141 0.091,-0.554 c -0.176,-0.037 -0.335,-0.056 -0.474,-0.056 -0.228,0 -0.404,0.036 -0.531,0.108 -0.125,0.072 -0.212,0.167 -0.264,0.285 -0.051,0.116 -0.077,0.364 -0.077,0.74 l 0,2.13 -0.46,0 0,0.488 0.46,0 0,0.917 0.625,0.376 0,-1.293 0.63,0 0,-0.488 -0.63,0 0,-2.165 c 0,-0.179 0.01,-0.294 0.032,-0.345 l 0.108,-0.122 c 0.05,-0.03 0.122,-0.046 0.214,-0.046 0.071,0 0.162,0.009 0.276,0.025 m 0.617,4.55 0.62802,0 0,-0.72198 -0.62802,0 0,0.72198 z m 0,-1.409 0.62802,0 0,-3.702 -0.62802,0 0,3.702 z m 4.117,-2.51 0.648,-0.08 c -0.102,-0.379 -0.291,-0.673 -0.567,-0.882 -0.277,-0.209 -0.631,-0.314 -1.06,-0.314 -0.542,0 -0.972,0.167 -1.288,0.5 -0.318,0.333 -0.476,0.801 -0.476,1.403 0,0.624 0.161,1.107 0.481,1.451 0.321,0.344 0.736,0.516 1.248,0.516 0.495,0 0.9,-0.169 1.213,-0.506 0.314,-0.336 0.471,-0.811 0.471,-1.422 l -0.004,-0.167 -2.76,0 c 0.022,-0.407 0.137,-0.719 0.345,-0.934 0.207,-0.217 0.464,-0.325 0.773,-0.325 0.23,0 0.426,0.06 0.589,0.182 0.163,0.12 0.291,0.313 0.387,0.578 m -2.06,1.015 2.067,0 c -0.027,0.311 -0.107,0.545 -0.237,0.7 -0.2,0.241 -0.459,0.363 -0.777,0.363 -0.288,0 -0.531,-0.097 -0.727,-0.289 -0.196,-0.193 -0.305,-0.451 -0.326,-0.774 m 3.246,-1.102 0.62,0.098 c 0.035,-0.249 0.132,-0.439 0.292,-0.573 0.158,-0.132 0.38,-0.198 0.667,-0.198 0.288,0 0.502,0.059 0.641,0.176 0.14,0.118 0.21,0.256 0.21,0.413 0,0.143 -0.062,0.253 -0.186,0.335 -0.085,0.056 -0.299,0.126 -0.641,0.212 -0.459,0.117 -0.779,0.217 -0.957,0.302 -0.177,0.085 -0.313,0.203 -0.404,0.353 -0.092,0.15 -0.138,0.315 -0.138,0.496 0,0.165 0.038,0.318 0.114,0.458 0.075,0.142 0.178,0.258 0.308,0.351 0.098,0.071 0.231,0.133 0.399,0.183 0.169,0.05 0.35,0.075 0.542,0.075 0.291,0 0.545,-0.043 0.766,-0.126 0.219,-0.083 0.381,-0.196 0.486,-0.339 0.105,-0.144 0.176,-0.334 0.215,-0.574 l -0.612,-0.084 c -0.029,0.19 -0.11,0.339 -0.243,0.446 -0.133,0.107 -0.323,0.161 -0.566,0.161 -0.289,0 -0.494,-0.048 -0.617,-0.143 -0.124,-0.095 -0.185,-0.207 -0.185,-0.335 l 0.077,-0.22 c 0.051,-0.068 0.131,-0.122 0.24,-0.167 0.063,-0.023 0.248,-0.077 0.555,-0.16 0.443,-0.119 0.753,-0.215 0.928,-0.291 0.176,-0.075 0.314,-0.186 0.414,-0.33 0.1,-0.144 0.15,-0.322 0.15,-0.537 0,-0.209 -0.062,-0.405 -0.183,-0.591 -0.123,-0.184 -0.299,-0.327 -0.529,-0.429 -0.229,-0.1 -0.49,-0.151 -0.78,-0.151 -0.482,0 -0.849,0.1 -1.101,0.3 -0.252,0.2 -0.413,0.497 -0.482,0.889 m 3.998,-0.39 0.71509,0 0,-0.71497 -0.71509,0 0,0.71497 z"
       id="path4681"
       style="fill:#231f20;fill-opacity:1;fill-rule:nonzero;stroke:none" />
  </g>
  <g
     transform="matrix(1.25,0,0,-1.25,23.717813,63.073675)"
     id="g4683">
    <path
       d="m 0,0 -0.266,0.495 -2.274,0 0.265,-0.495 1.071,0 0,-1.425 c -0.097,-0.125 -0.54,-0.31 -0.743,-0.31 -0.363,0 -0.691,0.132 -1.115,0.46 0.23,0.106 0.415,0.389 0.415,0.637 0,0.257 -0.079,0.46 -0.398,0.761 -0.318,0.301 -0.743,0.443 -0.929,0.443 -0.283,0 -0.655,-0.142 -0.982,-0.31 0.052,-0.133 0.106,-0.248 0.176,-0.372 l 0.133,-0.106 c 0.071,0 0.567,0.398 0.992,0.398 0.3,0 0.531,-0.194 0.531,-0.548 0,-0.416 -0.372,-0.673 -0.487,-0.673 -0.124,0 -0.558,-0.08 -0.699,-0.08 -0.089,0 -0.151,-0.044 -0.151,-0.15 l 0.398,-0.434 c 0.124,0 0.558,0.186 0.762,0.266 0.256,-0.08 0.469,-0.31 0.469,-0.646 0,-0.443 -0.337,-0.868 -0.859,-0.868 -0.611,0 -1.044,0.416 -1.46,1.346 L -5.39,-1.753 c 0.495,-1.071 1.115,-1.699 1.841,-1.699 0.681,0 1.194,0.407 1.194,1.062 0,0.133 -0.053,0.327 -0.132,0.451 l 0.017,0.018 c 0.231,-0.168 0.567,-0.257 0.708,-0.257 0.107,0 0.364,0.009 0.576,0.097 l -0.036,-1.734 0.549,-0.31 0,4.125 L 0,0 z m 4.354,0.495 -4.887,0 L -0.266,0 1.142,0 c 0.017,-0.169 0.035,-0.337 0.035,-0.532 0,-1.035 -0.044,-1.106 -0.115,-1.106 -0.097,0 -0.469,0.257 -0.549,0.257 -0.124,0 -0.247,-0.169 -0.247,-0.301 0,-0.301 0.46,-0.832 1.911,-2.443 l 0.248,0.248 c -0.549,0.566 -1.398,1.434 -1.398,1.469 0,0.053 0.044,0.089 0.265,0.204 0.124,0.062 0.31,0.274 0.398,0.371 0.39,-0.416 0.903,-0.478 1.045,-0.478 0.142,0 0.469,0.08 0.699,0.16 L 3.399,-3.815 3.947,-4.125 3.947,0 4.62,0 4.354,0.495 z M 1.708,0 l 1.708,0 0,-1.488 c -0.23,-0.176 -0.602,-0.327 -0.849,-0.327 -0.337,0 -0.664,0.177 -0.859,0.292 l 0,1.523 z m 3.594,0.495 -1.215,0 L 4.354,0 5.186,0 5.169,-3.815 l 0.54,-0.31 0,4.125 0.823,0 -0.266,0.495 -0.699,0 C 5.39,1.796 4.815,2.389 4.167,2.389 3.654,2.389 3.255,2.053 3.255,1.504 c 0,-0.177 0.142,-0.46 0.204,-0.522 l 0.195,0.071 c 0,0.54 0.185,0.84 0.54,0.84 0.479,0 0.966,-0.398 1.108,-1.398 m 1.832,0 -1.135,0 L 6.266,0 7.098,0 7.081,-3.815 7.62,-4.125 7.62,0 8.443,0 8.178,0.495 l -0.77,0 c -0.053,0.098 -0.08,0.221 -0.08,0.425 0,0.389 0.389,0.885 0.974,0.885 0.451,0 1.168,-0.336 1.752,-0.797 l 0,0.319 c -0.557,0.469 -1.478,0.92 -2.035,0.92 -0.868,0 -1.16,-0.708 -1.16,-1.035 0,-0.31 0.107,-0.487 0.275,-0.717 m 5.212,0 -4.435,0 L 8.178,0 l 1.089,0 0,-1.753 -0.39,0 c -0.097,0 -0.168,-0.115 -0.168,-0.195 0,-0.133 0.735,-0.929 0.912,-0.929 0.124,0 0.177,0.08 0.177,0.221 l 0,0.407 1.611,0 -0.018,-1.566 0.548,-0.31 0,4.125 0.673,0 -0.266,0.495 z M 9.798,0 l 1.611,0 0,-1.7531 -1.611,0 0,1.7531 z m 5.275,-3.815 0.548,-0.31 0,4.125 0.673,0 -0.266,0.495 -3.939,0 0.267,-0.495 2.735,0 0,-0.824 -1.266,0 c -0.407,0 -0.938,-0.239 -0.938,-0.911 0,-0.567 0.283,-1.186 1.15,-2.266 l 0.283,0.23 c -0.725,0.867 -0.956,1.31 -0.956,1.735 0,0.513 0.266,0.717 0.797,0.717 l 0.947,0 -0.035,-2.496 z M 22.392,0 l 1.416,0 -0.265,0.495 -4.33,0 L 19.479,0 21.923,0 c 0.168,-0.133 0.443,-0.408 0.443,-0.726 0,-0.239 -0.222,-0.47 -0.753,-0.54 -0.159,0.044 -0.575,0.088 -0.672,0.088 -0.098,0 -0.186,-0.044 -0.186,-0.141 0,-0.098 0.239,-0.416 0.274,-0.461 l 0.159,-0.053 c 0.054,0 0.284,0.009 0.532,0.089 0.566,-0.142 0.955,-0.354 0.955,-0.841 0,-0.389 -0.318,-0.779 -0.769,-0.779 -0.585,0 -0.965,0.354 -1.514,1.461 l -0.301,-0.142 c 0.354,-0.832 1.08,-1.761 1.991,-1.761 0.47,0 1.124,0.318 1.124,1.053 0,0.487 -0.371,0.894 -1.026,1.177 l 0,0.018 c 0.451,0.106 0.663,0.389 0.663,0.522 0,0.31 -0.194,0.655 -0.451,1.036 m 0.707,-1.301 -0.461,-0.585 0.177,-0.354 0.284,0.31 c 0.363,0.31 0.754,0.531 0.966,0.531 0.239,0 0.442,-0.159 0.442,-0.434 0,-0.336 -0.23,-0.832 -0.522,-1.23 l 0.452,-0.407 c 0.318,0.496 0.469,0.805 0.469,1.195 0,0.991 -0.655,1.372 -0.974,1.372 -0.292,0 -0.524,-0.151 -0.833,-0.398 M 22.568,0 l 3.143,0 -0.265,0.495 -3.144,0 L 22.568,0 z m 3.701,-1.08 -0.292,-0.124 c 0.433,-0.938 0.955,-1.974 1.885,-1.974 0.327,0 0.805,0.248 0.805,0.735 0,0.425 -0.239,0.708 -0.646,1.115 l 1.257,0 -0.018,-2.487 0.549,-0.31 0,4.125 0.673,0 -0.266,0.495 -5.029,0 0.267,-0.495 3.824,0 0,-0.832 -2.062,0 -0.071,-0.186 c 0.425,-0.248 1.009,-0.673 1.009,-1.133 0,-0.284 -0.159,-0.496 -0.469,-0.496 -0.248,0 -0.629,0.239 -0.841,0.531 -0.212,0.292 -0.398,0.611 -0.575,1.036 m 5.567,1.575 -1.878,0 0.267,-0.495 0.682,0 -0.018,-3.815 0.54,-0.31 0,4.125 0.672,0 -0.265,0.495 z m -0.648,-0.301 0.16,0.062 c -0.142,0.31 -0.408,0.885 -0.408,1.257 0,0.292 0.186,0.575 0.443,0.575 0.186,0 0.318,-0.115 0.479,-0.442 l 0.169,0.053 c -0.177,0.672 -0.498,0.832 -0.763,0.832 -0.381,0 -0.726,-0.354 -0.726,-0.753 0,-0.486 0.425,-1.239 0.646,-1.584 m 1.63,-5.179 0.107,-0.266 c 0.672,0.788 0.938,1.144 0.938,1.418 0,0.248 -0.222,0.549 -0.425,0.735 l -0.425,-0.478 c 0.221,-0.301 0.337,-0.452 0.337,-0.568 0,-0.168 -0.257,-0.549 -0.532,-0.841 M 43.041,0 l -0.266,0.495 -2.274,0 0.265,-0.495 1.071,0 0,-1.425 c -0.097,-0.125 -0.54,-0.31 -0.743,-0.31 -0.363,0 -0.69,0.132 -1.115,0.46 0.229,0.106 0.415,0.389 0.415,0.637 0,0.257 -0.079,0.46 -0.398,0.761 -0.318,0.301 -0.743,0.443 -0.929,0.443 -0.283,0 -0.655,-0.142 -0.982,-0.31 0.053,-0.133 0.106,-0.248 0.176,-0.372 l 0.133,-0.106 c 0.071,0 0.567,0.398 0.992,0.398 0.3,0 0.531,-0.194 0.531,-0.548 0,-0.416 -0.372,-0.673 -0.487,-0.673 -0.124,0 -0.558,-0.08 -0.699,-0.08 -0.089,0 -0.151,-0.044 -0.151,-0.15 l 0.399,-0.434 c 0.123,0 0.557,0.186 0.761,0.266 0.256,-0.08 0.468,-0.31 0.468,-0.646 0,-0.443 -0.336,-0.868 -0.858,-0.868 -0.61,0 -1.044,0.416 -1.46,1.346 l -0.239,-0.142 c 0.496,-1.071 1.115,-1.699 1.841,-1.699 0.681,0 1.195,0.407 1.195,1.062 0,0.133 -0.054,0.327 -0.133,0.451 l 0.018,0.018 c 0.23,-0.168 0.566,-0.257 0.708,-0.257 0.106,0 0.363,0.009 0.575,0.097 l -0.035,-1.734 0.548,-0.31 0,4.125 0.673,0 z m 2.496,-1.664 -0.018,-2.151 0.54,-0.31 0,4.125 0.673,0 -0.266,0.495 -3.966,0 0.265,-0.495 2.772,0 0,-1.169 -1.629,0 c -0.486,0 -0.601,-0.071 -0.601,-0.256 0,-0.142 0.539,-0.983 0.699,-0.983 0.062,0 0.159,0.044 0.159,0.186 l 0,0.469 0.195,0.089 1.177,0 z m 3.859,-0.204 0,0.496 -1.806,0 c -0.486,0 -0.602,-0.071 -0.602,-0.257 0,-0.142 0.54,-0.982 0.699,-0.982 0.098,0 0.195,0.044 0.195,0.185 l 0,0.469 0.159,0.089 1.355,0 z M 46.457,0 48.909,0 48.644,0.495 46.19,0.495 46.457,0 z m 4.842,-3.815 0.549,-0.31 0,4.125 0.672,0 -0.265,0.495 -3.941,0 0.267,-0.495 2.735,0 0,-0.824 -1.265,0 c -0.407,0 -0.938,-0.239 -0.938,-0.911 0,-0.567 0.283,-1.186 1.15,-2.266 l 0.283,0.23 c -0.726,0.867 -0.955,1.31 -0.955,1.735 0,0.513 0.265,0.717 0.796,0.717 l 0.947,0 -0.035,-2.496 z m 9.107,4.31 -4.887,0 L 55.786,0 57.193,0 c 0.018,-0.169 0.036,-0.337 0.036,-0.532 0,-1.035 -0.045,-1.106 -0.116,-1.106 -0.097,0 -0.469,0.257 -0.548,0.257 -0.124,0 -0.248,-0.169 -0.248,-0.301 0,-0.301 0.46,-0.832 1.912,-2.443 l 0.248,0.248 c -0.549,0.566 -1.399,1.434 -1.399,1.469 0,0.053 0.044,0.089 0.266,0.204 0.124,0.062 0.309,0.274 0.398,0.371 0.389,-0.416 0.903,-0.478 1.044,-0.478 0.142,0 0.469,0.08 0.7,0.16 l -0.036,-1.664 0.549,-0.31 0,4.125 0.673,0 -0.266,0.495 z M 57.76,0 l 1.708,0 0,-1.488 c -0.23,-0.176 -0.602,-0.327 -0.85,-0.327 -0.336,0 -0.664,0.177 -0.858,0.292 L 57.76,0 z M 60.964,1.716 60.387,2.292 59.82,1.725 60.396,1.15 60.964,1.716 z M 63.778,0 63.513,0.495 62.796,0.495 63.061,0 63.778,0 z m 0.452,-2.196 0,0.443 -1.532,0 0,0.965 c 0,1.009 -0.504,1.354 -1.017,1.354 -0.532,0 -0.7,-0.425 -0.7,-0.744 0,-0.362 0.16,-0.761 1.213,-1.071 l -0.027,-0.504 -0.389,0 c -0.097,0 -0.168,-0.115 -0.168,-0.195 0,-0.203 0.805,-0.849 0.929,-0.849 0.071,0 0.159,0.053 0.159,0.15 l 0,0.451 1.532,0 z m -2.001,1.266 c -0.318,0.036 -0.717,0.283 -0.717,0.637 0,0.213 0.133,0.469 0.372,0.469 0.336,0 0.372,-0.301 0.372,-0.584 0,-0.177 -0.009,-0.345 -0.027,-0.522 m 2.868,1.425 -1.878,0 0.267,-0.495 0.682,0 -0.018,-3.815 0.54,-0.31 0,4.125 0.672,0 -0.265,0.495 z m 1.611,0 -1.878,0 0.267,-0.495 0.681,0 -0.017,-3.815 0.54,-0.31 0,4.125 0.672,0 -0.265,0.495 z m 3.213,-2.894 -0.036,-1.416 0.549,-0.31 0,4.125 0.673,0 -0.266,0.495 -4.4,0 0.267,-0.495 3.195,0 0,-1.452 -0.018,0 c -0.168,0.23 -0.345,0.487 -0.611,0.646 -0.247,0.151 -0.601,0.168 -0.796,0.168 -0.921,0 -1.239,-0.531 -1.239,-1.009 0,-0.796 0.841,-1.327 1.372,-1.327 0.486,0 0.911,0.23 1.31,0.575 m -2.204,0.557 c 0,0.337 0.318,0.709 0.938,0.709 0.469,0 0.973,-0.337 1.239,-0.585 -0.434,-0.495 -1.071,-0.867 -1.478,-0.867 -0.425,0 -0.699,0.248 -0.699,0.743 m 5.894,0.178 -0.017,-2.151 0.539,-0.31 0,4.125 0.673,0 -0.265,0.495 -3.967,0 0.265,-0.495 2.772,0 0,-1.169 -1.628,0 c -0.487,0 -0.602,-0.071 -0.602,-0.256 0,-0.142 0.54,-0.983 0.699,-0.983 0.062,0 0.159,0.044 0.159,0.186 l 0,0.469 0.195,0.089 1.177,0 z m 2.532,2.159 -1.878,0 0.267,-0.495 0.681,0 -0.017,-3.815 0.539,-0.31 0,4.125 0.673,0 -0.265,0.495 z M 80.241,0 l -0.266,0.495 -4.108,0 0.265,-0.495 0.825,0 0,-2.204 c 0,-0.266 0.089,-0.452 0.274,-0.585 l 2.355,-1.444 c 0.168,-0.106 0.23,-0.177 0.23,-0.256 0,-0.08 -0.08,-0.195 -0.16,-0.292 l 0.452,-0.399 c 0.186,0.257 0.292,0.434 0.292,0.567 0,0.15 -0.08,0.292 -0.469,0.541 l -2.328,1.469 c -0.062,0.036 -0.115,0.195 -0.115,0.337 l 0,2.266 1.416,0 0,-1.974 c 0,-0.124 -0.071,-0.168 -0.248,-0.168 -0.124,0 -0.31,0.017 -0.495,0.026 l 0.3,-0.442 c 0.195,-0.053 0.496,-0.08 0.656,-0.08 0.212,0 0.318,0.097 0.318,0.363 l 0,2.275 0.806,0 z m 0.301,1.716 -0.577,0.576 -0.567,-0.567 0.576,-0.575 0.568,0.566"
       id="path4685"
       style="fill:#231f20;fill-opacity:1;fill-rule:nonzero;stroke:none" />
  </g>
</svg>
